<svg xmlns="http://www.w3.org/2000/svg" viewBox="0 0 500 500"><g id="freepik--Road--inject-147"><path d="M279.05,269.9l-15.71-14.21s32.89,1.69,62.9,14.21c22.23,9.27,39.64,22.48,48.07,34.34C393.8,331.64,396,396.32,373.7,500H0S281.08,395.58,305.52,305.73C310.83,286.24,279.05,269.9,279.05,269.9Z" style="fill:#37474f"></path><path d="M338.08,307.79c0,26.13-11.7,54.55-35.76,86.9C278.81,426.28,244.13,460.83,196.59,500H195c48-39.43,82.89-74.17,106.5-105.91,23.94-32.17,35.57-60.4,35.57-86.3,0-13.69-22.31-28.87-36.37-35.23-7.43-3.35-18.85-6-27.22-7.69L272,263.56c8.5,1.64,21.08,4.47,29.08,8.09a108.34,108.34,0,0,1,23,14.39C333.24,293.67,338.08,301.19,338.08,307.79Z" style="fill:#8C52B5"></path><path d="M340.05,307.79c0,53.92-41.55,113.58-134.26,192.21h-1.55c93.1-78.8,134.81-138.43,134.81-192.21,0-6.75-4.43-13.93-13.16-21.33a109.26,109.26,0,0,0-23.24-14.57c-9-4.2-21.17-7-30.87-8.57l-1.34-1.21c10,1.49,23,4.41,32.63,8.87C306.85,272.74,340.05,288.71,340.05,307.79Z" style="fill:#8C52B5"></path></g><g id="freepik--Mountains--inject-147"><path d="M336.44,264.05H500V205.33s-13.52-10.42-25.94-5.64-18.58,12.43-27,15.48-38.15,7.05-45.24,13.25-16.85,20.1-23.94,21.58S336.44,264.05,336.44,264.05Z" style="fill:#dbdbdb"></path><path d="M482,197.61c-1.4.11-11.3,1.43-12.55,2.08s-8.78,6.15-9.59,6.73-6.56,4.64-7.3,5.27-8.8,3.79-9.3,4-10.25,3-11.17,3.16.64,1.83.79,1.75a86.35,86.35,0,0,1,8.64-1.17c1.08.08,5.47,5.27,5.47,5.27a10,10,0,0,0,4.09,1.55c2.58.41,3.82,5.48,4.65,5.73s7.07-2.24,8.11-3.4,4.61-11.31,5-11.81,1.25-.5,2.16-.83,2,3.41,3,3.66,1.42,2,2.75,2.08,6.57-4.33,7.4-5.08,2.82-.74,3.65-.66,2.66,1.41,3.08,1.16,2.41-2.41,2.66-2.66.08-4.24.33-5.23.34-.84,2.25-.5,2.63.33,3.24-.17-.92-4.26-1.8-4.78-6-3.53-6.76-4.2S483.18,197.52,482,197.61Z" style="fill:#fff"></path><path d="M455.87,232.33a.71.71,0,0,1-.23,0c-.43-.13-.73-.69-1.31-1.84-.77-1.54-1.82-3.64-3.3-3.88a10.22,10.22,0,0,1-4.25-1.62c-2.12-2.49-4.7-5.14-5.28-5.2-1-.07-8,1-8.48,1.15-.19.11-.43-.06-.51-.12s-1.22-1.1-1.06-1.82a.7.7,0,0,1,.57-.53c.94-.2,10.69-3,11.14-3.15.69-.23,8.53-3.34,9.17-3.88s4-2.91,6-4.35l1.32-.94.27-.2c5.36-3.88,8.59-6.15,9.37-6.56,1.37-.72,11.59-2,12.7-2.12s8.24,1.25,9.09,2c.63.57,4.85,3.06,6.24,3.88l.46.27c.85.51,2,3.18,2.12,4.48a1,1,0,0,1-.27.92c-.74.6-1.57.59-3.55.25l-.64-.12a3.43,3.43,0,0,0-1-.12,1.55,1.55,0,0,0-.15.46,19.51,19.51,0,0,0-.16,2.76c0,2.1-.07,2.45-.28,2.65l-.36.38a21.46,21.46,0,0,1-2.37,2.33c-.38.24-.91,0-1.88-.51a5.6,5.6,0,0,0-1.42-.6c-1-.09-2.71,0-3.37.57-.06.06-6,5.25-7.68,5.17a2.76,2.76,0,0,1-1.9-1.28,2.1,2.1,0,0,0-.91-.81c-.62-.16-1.11-1-1.67-2.06-.3-.55-.86-1.57-1.11-1.61a7.75,7.75,0,0,1-.92.27,2.06,2.06,0,0,0-1.07.45c-.15.21-.82,1.95-1.48,3.64-1.63,4.19-2.92,7.46-3.56,8.18C463.11,229.92,457.4,232.33,455.87,232.33Zm-8.58-7.91a10.28,10.28,0,0,0,3.86,1.42c1.85.3,3,2.6,3.85,4.29a6.38,6.38,0,0,0,.87,1.46c.69.14,6.69-2.17,7.7-3.3.6-.67,2.3-5.06,3.42-8a30.41,30.41,0,0,1,1.6-3.84,2.57,2.57,0,0,1,1.47-.7,7,7,0,0,0,.85-.24c.78-.28,1.36.75,2,1.95.35.64.89,1.62,1.19,1.69a2.64,2.64,0,0,1,1.32,1.07c.4.49.78,1,1.36,1h0c1,0,5.43-3.47,7.1-5,1.14-1,3.83-.78,3.94-.76a5.55,5.55,0,0,1,1.69.67,7.26,7.26,0,0,0,1.22.52c.22-.15,1.62-1.63,2.15-2.19l.33-.35a18.13,18.13,0,0,0,.1-2.18,18.89,18.89,0,0,1,.18-2.93c.3-1.21.74-1.13,2-.89l.63.12c1.86.32,2.46.3,2.94-.09.23-.45-1-3.72-1.75-4.17l-.46-.27c-2.64-1.56-5.75-3.43-6.36-4s-7.41-1.91-8.54-1.82l0-.37,0,.37c-1.65.13-11.27,1.45-12.4,2.05-.43.22-2.19,1.36-9.28,6.5l-.27.2-1.33.94c-1.89,1.34-5.4,3.84-5.94,4.31-.83.71-9.08,3.91-9.43,4s-10.27,3-11.21,3.16c0,.17.49.8.75,1a86.22,86.22,0,0,1,8.63-1.15c1.14.09,4.67,4.15,5.73,5.4Z" style="fill:#ebebeb"></path><path d="M339.6,243.5S298.74,227.15,288.05,222s-43.84-8.6-54.93-14.76-45.57-28.79-52.46-33.86c-3.82-2.81-21.63-9-34.59-15.87-10.43-5.5-15.67-12-23.54-12.76-17.67-1.67-49.75,15.4-52.54,18.81a184.13,184.13,0,0,1-14.41,15.49c-2.92,2.8-33.94,19.56-40.45,32C3.66,233.1,0,243.5,0,243.5Z" style="fill:#ebebeb"></path><path d="M79.54,157a28.09,28.09,0,0,0-10.35,7.62c-1.57,1.85-.77,4.54,1.72,4.37s7.73-2.84,10.39-2.85,5.92,7.71,9.16,8a31.2,31.2,0,0,0,8.14-.67c1.83-.25,6.74-.26,6.74-.26l5.33,6s6.41,2.57,8,2.48,8.65,3.48,8.65,3.48l4.41,3.65s11.13-3.35,11.72-3.76,1-2.33,1.57-3.16,11.73,4.46,11.73,4.46,6.83,8.8,8.41,9.13a73.71,73.71,0,0,0,8.82.74c.91-.09,1.74-3.58,1.74-3.58s-1.19-12,0-13,7.71-3.59,7.76-4.46-8.53-7.76-10.52-8.67S148.4,157,146.07,155.54s-16.93-14.63-20.21-15.46S102,141.54,101,142.87s-8,6.58-9.38,7.16S79.54,157,79.54,157Z" style="fill:#fff"></path><path d="M173.68,196.66a79.25,79.25,0,0,1-8.6-.75c-1.61-.33-7.31-7.56-8.58-9.2-4.88-2.31-10.32-4.58-11.23-4.48a8.9,8.9,0,0,0-.61,1.36,4.13,4.13,0,0,1-1,1.82c-.6.43-10,3.26-11.82,3.82l-.19.06-4.57-3.78c-2.74-1.37-7.3-3.46-8.39-3.39-1.6.09-7.49-2.24-8.15-2.51l-.14-.1-5.22-5.85c-.87,0-4.92,0-6.51.26l-1.27.2a25.24,25.24,0,0,1-7,.48c-1.82-.19-3.53-2.36-5.18-4.46-1.39-1.76-2.83-3.58-3.94-3.58h0A20.58,20.58,0,0,0,75.77,168a21.74,21.74,0,0,1-4.83,1.36A2.6,2.6,0,0,1,68.3,168a3.32,3.32,0,0,1,.6-3.61,28.68,28.68,0,0,1,10.47-7.72c.74-.44,10.75-6.43,12.15-7s8.36-5.78,9.21-7c1.12-1.64,22.32-3.67,25.22-2.94,2.23.56,9,6.25,14.5,10.82,2.7,2.26,5,4.21,5.81,4.68,1.54.93,12.41,5.26,19.61,8.13,3.65,1.45,6.54,2.6,7.2,2.91,1.38.63,10.81,7.73,10.75,9,0,.63-1.12,1.25-4.58,2.94a24.29,24.29,0,0,0-3.31,1.78c-.63.57-.41,7,.15,12.65v.06l0,.06c-.27,1.13-1,3.77-2.07,3.87Zm-28.44-15.14c.94,0,3.61.73,11.66,4.55l.14.11c2.61,3.36,7.14,8.78,8.19,9a73.1,73.1,0,0,0,8.7.72c.3,0,1-1.44,1.4-3.23-.29-2.92-1.1-12.19.11-13.23a23.18,23.18,0,0,1,3.47-1.88,22.55,22.55,0,0,0,4.14-2.31c-.58-1.14-8.33-7.42-10.29-8.31-.65-.3-3.53-1.44-7.17-2.89-7.65-3.05-18.13-7.22-19.72-8.19-.83-.5-3.07-2.37-5.9-4.74-5.13-4.29-12.14-10.16-14.21-10.68-3.67-.92-23.44,1.61-24.41,2.65-.95,1.38-8,6.65-9.54,7.29-1.37.57-12,6.92-12.08,7l-.06,0c-5.39,2.06-9.44,6.62-10.2,7.51a2.64,2.64,0,0,0-.5,2.79,1.87,1.87,0,0,0,1.92,1,21.4,21.4,0,0,0,4.63-1.32,20.88,20.88,0,0,1,5.78-1.52h0c1.48,0,3,1.88,4.52,3.87s3.17,4,4.68,4.17a25.13,25.13,0,0,0,6.76-.46q.72-.13,1.29-.21c1.84-.26,6.59-.27,6.79-.27h.17l5.38,6c1.82.73,6.54,2.51,7.74,2.42,1.67-.07,8.11,3.15,8.85,3.51l4.32,3.57c4.24-1.27,10.93-3.34,11.42-3.65a4.62,4.62,0,0,0,.74-1.49,8.33,8.33,0,0,1,.74-1.58C144.76,181.65,144.85,181.52,145.24,181.52Z" style="fill:#ebebeb"></path><path d="M500,243v56H375A56,56,0,0,0,395.55,276c3.06-6.32,25.77-16.65,27.85-18.65,4.64-4.46,9.25-12.78,11.24-15.21a5.17,5.17,0,0,1,.95-.82.1.1,0,0,1,.06-.05c5-3.64,25-13.62,36.42-12.54,5.61.53,9.35,5.18,16.77,9.09C492.31,239.6,496.27,241.37,500,243Z" style="fill:#c7c7c7"></path><path d="M500,241v21.61c-1.69-1.88-3.55-4.28-3.55-4.28s-7.94-3.78-8.36-3.19-.71,2-1.12,2.25-8.35,2.69-8.35,2.69l-3.14-2.61s-5-2.53-6.16-2.47-5.69-1.77-5.69-1.77l-3.8-4.26s-3.5,0-4.8.19a22.24,22.24,0,0,1-5.8.48c-2.31-.24-4.63-5.73-6.53-5.73s-5.62,1.91-7.4,2-2.35-1.8-1.23-3.11a20.38,20.38,0,0,1,1.52-1.58.1.1,0,0,1,.06-.05,18.37,18.37,0,0,1,5.79-3.8s7.64-4.58,8.64-5a37,37,0,0,0,6.69-5.11c.65-.95,15.33-2.57,17.68-2s12.73,10,14.39,11C489.76,236.91,495.16,239.09,500,241Z" style="fill:#fff"></path><path d="M500.38,263.6l-.66-.72c-1.52-1.69-3.19-3.82-3.51-4.23-3.34-1.59-7.09-3.16-7.87-3.18a5,5,0,0,0-.39.89,3.17,3.17,0,0,1-.76,1.35c-.42.3-6.06,2-8.46,2.75l-.19.05-3.3-2.74c-1.84-.91-5.18-2.39-5.9-2.38h-.07c-1.26,0-5.31-1.61-5.78-1.8l-.14-.09-3.69-4.14c-.71,0-3.48,0-4.58.19-.26,0-.56.09-.9.14a18.15,18.15,0,0,1-5,.34c-1.34-.14-2.57-1.7-3.77-3.21-1-1.24-2-2.52-2.72-2.52a14.59,14.59,0,0,0-3.9,1,15.77,15.77,0,0,1-3.47,1,2,2,0,0,1-2-1,2.46,2.46,0,0,1,.45-2.69,20.61,20.61,0,0,1,1.49-1.56l0-.08.11-.05a18.48,18.48,0,0,1,5.88-3.84c.25-.16,7.61-4.57,8.63-5a37.25,37.25,0,0,0,6.52-5c.82-1.19,15.8-2.7,18.08-2.14,1.49.38,5.57,3.72,10.34,7.72,1.93,1.62,3.6,3,4.15,3.34.91.55,6.41,2.77,11.11,4.65l.24.09Zm-12.13-8.86c.74,0,2.69.57,8.36,3.27l.14.11s1.42,1.83,2.87,3.51V241.27c-4.94-2-10.05-4-11-4.6-.6-.37-2.2-1.71-4.24-3.42-3.42-2.86-8.6-7.2-10-7.56-2.51-.62-16.43,1.09-17.3,1.86a36.18,36.18,0,0,1-6.84,5.22c-.77.32-6,3.39-8.59,5a17.94,17.94,0,0,0-5.72,3.75l-.08.06a18.26,18.26,0,0,0-1.47,1.54A1.72,1.72,0,0,0,434,245a1.19,1.19,0,0,0,1.26.63,15.3,15.3,0,0,0,3.28-.94,15.24,15.24,0,0,1,4.15-1.09c1.11,0,2.18,1.36,3.31,2.8s2.23,2.83,3.26,2.93a17.29,17.29,0,0,0,4.79-.33l.92-.15c1.31-.18,4.71-.19,4.85-.19H460l3.85,4.32a26.89,26.89,0,0,0,5.4,1.71h.1c1.23,0,5.45,2.09,6.3,2.51l3.05,2.53c3-.9,7.66-2.35,8.06-2.58a4.3,4.3,0,0,0,.49-1,6.17,6.17,0,0,1,.53-1.15C487.84,254.86,487.92,254.74,488.25,254.74Z" style="fill:#ebebeb"></path><path d="M445.35,266.61c-1,.5-4.32,4.16-6,6s-11,.65-12.42,0-11.36-2.51-14.35-2.17c-2.68.3-10.53.67-13.7,1.76,7.25-6,22.8-13.26,24.5-14.9a33.53,33.53,0,0,0,3.13-3.54,25.3,25.3,0,0,1,3.69,1.94c1.66,1.23,8.65.44,11.31,2.6S446.35,266.11,445.35,266.61Z" style="fill:#a6a6a6"></path><path d="M232.42,264.05c-2.63-2.36-28.33-20.53-37.78-27.18s-42-14-47.21-23.68-33.05-52.95-43.92-58.36S62.45,142.51,54.58,143,30.45,157.67,25.2,162.92.2,175.53.2,175.53v88.52H232.42" style="fill:#dbdbdb"></path><path d="M20.76,166.43c1-.7,17.4-1.74,19.56-3.4s11-1,11.47-.5S57.94,176,57.94,176s5.82,1.73,7,2.52,8,4.13,8,4.13,7.15,12.64,9.14,13.64,8.48-11.65,8.48-11.65,4.16-8.31,5.16-9.64,4.65-1.29,4.65-1.29,1.77,4.68,2.88,4.81,4.09,2.46,5.09,2.13,3.66-4,4-4.65a50,50,0,0,0,1.16-4.89s4.49,4.57,5.32,4.89,2,2.29,3.16,2-4.65-9.29-5.49-11.45-6.48-9.15-9.31-11.64-16.28-6.49-18.44-8-30.76-9-32.42-8.48-12.93,6.16-13.62,8-9.82,9.81-11.65,11S20.76,166.43,20.76,166.43Z" style="fill:#fff"></path><path d="M82.24,196.7a.76.76,0,0,1-.36-.08c-2-1-8.28-12-9.24-13.69-.9-.44-6.82-3.34-7.93-4.1a48.24,48.24,0,0,0-6.88-2.47l-.17-.05-.07-.16c-2.13-4.89-5.66-12.86-6.08-13.37-.69-.39-9-1-11,.55-1.3,1-6.53,1.68-13.23,2.47a49.61,49.61,0,0,0-6.34.94l-3.05,1.84,2.58-2.42c.34-.32,8.46-7.93,10.3-9.1,2-1.29,10.89-9.14,11.5-10.79.79-2.1,12.54-7.81,13.86-8.21,1.74-.5,30.5,7,32.75,8.53a50.42,50.42,0,0,0,6.74,2.77c4.69,1.74,10,3.72,11.73,5.24,2.74,2.41,8.54,9.51,9.42,11.78.28.73,1.2,2.36,2.17,4.08,2.67,4.71,3.74,6.8,3.43,7.54a.53.53,0,0,1-.38.33c-.94.26-1.8-.57-2.48-1.24a3.9,3.9,0,0,0-.9-.74c-.74-.29-3.66-3.17-5-4.48a35.94,35.94,0,0,1-1.06,4.3c-.3.62-3,4.44-4.2,4.84-.69.22-1.74-.32-3.26-1.17a8.08,8.08,0,0,0-2-.94c-1.16-.14-2.56-3.46-3.09-4.82-1.11,0-3.43.25-4.09,1.14-1,1.29-5.08,9.51-5.12,9.59C89.38,187.7,84.57,196.7,82.24,196.7Zm-24-21c1,.3,5.83,1.77,6.93,2.52s7.86,4.06,7.93,4.1l.11.05,0,.1c2.85,5,7.6,12.8,9,13.49,1,.5,4.93-5.54,8-11.48.17-.34,4.18-8.36,5.19-9.7s4.55-1.44,5-1.44h.25l.09.24c.92,2.43,2.09,4.53,2.57,4.58a8,8,0,0,1,2.27,1c.9.5,2.25,1.26,2.66,1.11.82-.27,3.45-3.79,3.77-4.45a42.14,42.14,0,0,0,1.13-4.81l.14-.7.5.51a45.7,45.7,0,0,0,5.19,4.81,4.23,4.23,0,0,1,1.15.91c.54.52,1.16,1.1,1.65,1.07,0-.87-2.12-4.56-3.39-6.8-1-1.82-1.92-3.39-2.23-4.18-.78-2.05-6.29-8.92-9.2-11.49-1.62-1.43-7.1-3.46-11.5-5.09a50.55,50.55,0,0,1-6.91-2.86c-2.12-1.47-30.31-8.86-32.1-8.43-2.06.62-12.79,6.2-13.38,7.76-.75,2-10.1,10.07-11.8,11.16-1.4.88-6.82,5.88-9.13,8,1-.17,2.68-.37,5.15-.66,4.91-.58,11.63-1.38,12.86-2.33,2.21-1.69,11.17-1.26,12-.47C52.56,162.76,56.8,172.46,58.21,175.69Z" style="fill:#ebebeb"></path><path d="M292.44,279.68s-11.36-18.69-15.69-24c-1.58-1.93-13.52-7.73-18.12-10.86-5.87-4-11.38-11.9-13.75-15.7-3.75-6-22.7-16.49-28-17s-24.61,11.07-25.94,17.39-12,28.26-20.29,34.91A91.48,91.48,0,0,0,156,279.68Z" style="fill:#c7c7c7"></path><path d="M279.05,258.78c-2.7.62-8.69-.07-10.17-.54-1.77-.55-6-4.43-8.09-5.54s-18.18-6.76-20.38-7.87-22.07-6-23.19-9.53-1.1-10.31,0-12.3l.64-10.73c6.36,1.52,23.48,11.21,27,16.86,2.37,3.8,7.88,11.71,13.75,15.7,4.6,3.13,16.54,8.93,18.12,10.86C277.39,256.47,278.17,257.53,279.05,258.78Z" style="opacity:0.1"></path><path d="M189.63,231.2c.11-.89.44-5.77,1-7.32s10.77-8.87,12.25-9.75,6.15-1,7-1.33,5.88-2,6.77-2.11,14.74,6.32,17.18,7.65,6.07,5.87,6.62,6.32S235.3,224,233,223s-6.76-3.88-10.64-3.32-5.88,4.32-6.21,5.32,0,5.43-.44,6.65a50.44,50.44,0,0,1-4.77,7.2c-.89,1-.55,3.55-3.1,5.1s-2.55-5.1-3.55-8.31-2.55-7.09-2.55-7.09-3.66,4.1-4.77,5.21-.55,5-.77,6.2-4,7.54-5.32,8.43-1.22-3.33-.78-5.77-2-5.36-2-5.36Z" style="fill:#fff"></path><path d="M190.51,248.87a.74.74,0,0,1-.41-.12c-1.11-.73-.65-4.83-.4-6.2.41-2.24-1.87-5-1.9-5.06l-.12-.15,1.58-6.21c0-.2.05-.55.1-1a38.35,38.35,0,0,1,.91-6.38c.63-1.75,11.19-9.22,12.42-9.95,1-.6,3.26-.85,5.06-1.06a13.28,13.28,0,0,0,2-.3c.77-.28,5.89-2,6.85-2.12,1.14-.14,15.69,6.75,17.41,7.69,1.87,1,4.41,3.86,5.78,5.39.42.47.78.88.9,1l.25.21-.13.34c-.45.74-6.78-1-8-1.58-.49-.21-1.07-.5-1.72-.83-2.43-1.22-5.76-2.89-8.72-2.47-3.67.52-5.59,4.13-5.9,5.07a14.62,14.62,0,0,0-.16,2.82,16.08,16.08,0,0,1-.29,3.84,50.68,50.68,0,0,1-4.84,7.32,3.9,3.9,0,0,0-.57,1.35,6,6,0,0,1-2.62,3.82,1.47,1.47,0,0,1-1.41.18c-1.18-.54-1.58-2.91-2-5.42a26.11,26.11,0,0,0-.68-3.28c-.76-2.44-1.85-5.31-2.32-6.5-1,1.1-3.48,3.88-4.37,4.77-.65.65-.63,2.69-.61,4.17a12.19,12.19,0,0,1-.06,1.84c-.24,1.31-4,7.7-5.48,8.67A1,1,0,0,1,190.51,248.87Zm-2-11.71c.51.65,2.36,3.24,1.94,5.52-.49,2.71-.3,5.27.08,5.44a.27.27,0,0,0,.12-.05c1.27-.85,5-7.13,5.16-8.18a11.81,11.81,0,0,0,0-1.7c0-1.71,0-3.84.83-4.71,1.09-1.09,4.71-5.15,4.75-5.19l.4-.46.23.57s1.57,3.93,2.56,7.12a28.15,28.15,0,0,1,.7,3.38c.34,2,.77,4.48,1.58,4.86.07,0,.28.12.71-.14a5.19,5.19,0,0,0,2.29-3.39,4.24,4.24,0,0,1,.73-1.63,49.33,49.33,0,0,0,4.69-7.09,15.75,15.75,0,0,0,.25-3.58,14.18,14.18,0,0,1,.19-3.06c.43-1.27,2.53-5,6.51-5.57,3.19-.46,6.65,1.27,9.17,2.54.63.32,1.2.6,1.68.81a34.39,34.39,0,0,0,6.52,1.67l-.38-.42c-1.34-1.49-3.82-4.27-5.58-5.23-2.88-1.57-16-7.56-17-7.61-.78.1-5.63,1.7-6.66,2.09a12.06,12.06,0,0,1-2.21.34c-1.63.18-3.88.43-4.76,1-1.9,1.13-11.63,8.25-12.09,9.56a38.2,38.2,0,0,0-.88,6.18c0,.49-.08.86-.1,1.05v0Z" style="fill:#ebebeb"></path><path d="M305.52,305.73C281.08,395.58,0,500,0,500L.2,182.45S35.33,167,56,171s45.22,17.23,53.87,26.57,33.51,32.13,47.68,34c9.29,1.24,22.92,7.27,28.8,11.1,4.4,2.87,5.4,8.08,8.55,11.64,1.83,2.07,40.11,5.77,52,12.75,7.72,4.52,27.73,6.85,42.4,9.32C298,283,308.78,293.76,305.52,305.73Z" style="fill:#a6a6a6"></path><path d="M.2,182.45s14.29-7.6,16.29-8.74,14.18-2.91,18.17-3.36,12-5.66,16.19-5.38,28.6,10.2,31.92,11.34,11.09,7.78,12.2,8.44,14.36,7.49,16.15,10.07,2.81,12.32,5.19,15.87,11.69,12.86,13,15.07,14.23,11.09,11.33,14.19-21.41-6.2-24.35-7.53-11.4,1.81-15.82,3.23S91.86,246.18,89,248.5a49.24,49.24,0,0,1-14.41,7.19c-4.84,1.33-10.76,12.13-12.37,14s-13.35-8.66-17.12-12.58-1.22-24.23-6.76-23.85-7.87-11.95-9.2-14.17-11.3,9.76-15.52,11.75S10.72,239.07,8.73,242,0,251.7,0,251.7Z" style="fill:#fff"></path><path d="M61.63,270.3c-3.31,0-14.18-10.16-16.82-12.91-1.74-1.81-2.17-6.63-2.63-11.73-.54-6-1.11-12.19-3.83-12-4.48.32-6.85-6.7-8.41-11.34a20.9,20.9,0,0,0-1.14-3,.15.15,0,0,0-.13-.09c-1.09-.15-4.54,3.12-7.34,5.75s-5.71,5.35-7.57,6.23c-2.42,1.15-2.88,3.85-3.34,6.45A11.19,11.19,0,0,1,9,242.16C7,245,.54,251.68.27,252l-.65.65.21-70.4.19-.1c.15-.08,14.31-7.61,16.28-8.74,2.15-1.23,15.05-3,18.32-3.4,1.7-.19,4.18-1.29,6.8-2.45,3.44-1.52,7-3.11,9.45-2.94,3.19.21,17.5,5.76,26,9.08,2.87,1.11,5.14,2,6,2.28,2.49.84,7.29,4.62,10.15,6.87,1,.81,1.84,1.44,2.12,1.61s.72.4,1.48.81c6.17,3.33,13.42,7.4,14.79,9.36.88,1.26,1.57,4.09,2.29,7.08.78,3.27,1.67,7,2.9,8.8a103.8,103.8,0,0,0,7.32,8.49,71.45,71.45,0,0,1,5.71,6.6,26.32,26.32,0,0,0,3.53,3.39c3.63,3.18,8.14,7.13,8.27,9.77a1.92,1.92,0,0,1-.52,1.48c-2.47,2.63-13.76-2.24-23.33-6.77-.63-.31-1.13-.54-1.45-.68-2.43-1.1-9.2,1.15-13.67,2.63l-1.87.62c-2.63.84-5.24,4.61-7.54,7.93a25.38,25.38,0,0,1-3.86,4.85,49.14,49.14,0,0,1-14.54,7.26c-3.58,1-7.85,7.47-10.41,11.34-.77,1.17-1.39,2.1-1.77,2.56a1.09,1.09,0,0,1-.82.35ZM38.49,232.9c3.3,0,3.85,6.17,4.44,12.69.42,4.75.86,9.66,2.42,11.28,4.21,4.38,13.78,12.68,16.27,12.68h0a.33.33,0,0,0,.27-.09c.35-.42,1-1.33,1.72-2.49,2.61-4,7-10.58,10.83-11.64a49.3,49.3,0,0,0,14.27-7.12,26.42,26.42,0,0,0,3.72-4.69c2.37-3.43,5.05-7.31,7.92-8.23.56-.18,1.19-.38,1.86-.61,4.86-1.61,11.52-3.83,14.22-2.61l1.46.69c13.31,6.31,20.87,8.64,22.46,6.94a1.18,1.18,0,0,0,.32-.93c-.11-2.32-4.68-6.32-8-9.25A24.27,24.27,0,0,1,129,226a73.66,73.66,0,0,0-5.62-6.48A103.45,103.45,0,0,1,116,210.9c-1.31-2-2.17-5.55-3-9-.71-2.92-1.37-5.68-2.17-6.83-1.44-2.06-11-7.2-14.54-9.13-.78-.42-1.32-.71-1.51-.83s-1.1-.81-2.19-1.66c-2.83-2.22-7.57-5.95-9.93-6.75-.86-.29-3.13-1.17-6-2.29-8.5-3.3-22.74-8.83-25.82-9-2.27-.14-5.74,1.39-9.09,2.87-2.68,1.19-5.21,2.31-7,2.51-4.22.48-16.15,2.22-18,3.31S2.31,181.75.57,182.68l-.19,68.1a111.89,111.89,0,0,0,8-9.05,11,11,0,0,0,1.27-4.2c.46-2.67,1-5.69,3.75-7,1.76-.83,4.61-3.51,7.38-6.1,4.06-3.82,6.64-6.11,8-5.94a.9.9,0,0,1,.67.44,19.8,19.8,0,0,1,1.22,3.16c1.39,4.15,3.75,11.1,7.64,10.83Z" style="fill:#ebebeb"></path><path d="M259.7,364.37c-14.55,12-31.59,23.83-49.86,35.18-7.15-4.45-73.62-53.32-74.67-55.44s-9.46-53.06-9.26-56.71,6.19-20.31,6.19-20.31,5,22,6.65,25.15S157,316,160,318s28.73,14.4,34.83,14.35C199.64,332.3,242,354.82,259.7,364.37Z" style="opacity:0.1"></path><path d="M250.67,268.84c-1,1.39-7.28,5.36-10.15,5.36s-13.65-2.1-14-1.88-17.51,7-20.28,7.87-15.52-.22-16-1.55,4.55-20.62,4.56-24.28c1.83,2.07,40.11,5.77,52,12.75A23.76,23.76,0,0,0,250.67,268.84Z" style="opacity:0.1"></path><path d="M209.84,399.55c-5.57,3.47-11.27,6.89-17,10.26-11.12,1-19.13-1-23.91-1.42s-23.82-2.28-25.82,3.38-11,9.64-14,11.63-9,5.33-12.8,10c-2.14,2.61-5.59,12.42-8.91,20.89C48.74,481.89,0,500,0,500V288.06l.13,0c1.58.25,17.28,2.79,24.23,5.66a159.89,159.89,0,0,1,20.91,10.95c2.29,1.66,21,15.29,29.3,17.29s21,0,28.27,2.66,28.26,15.3,32.33,19.47Z" style="fill:#fff"></path><path d="M-.38,500.54v-213l.48.13c1.84.29,17.4,2.8,24.4,5.69a160.61,160.61,0,0,1,21,11l.14.1c6.29,4.56,21.72,15.37,29,17.13,3.79.9,8.58,1,13.22,1.05,5.45.08,11.08.16,15.09,1.62,7.37,2.68,28.3,15.29,32.47,19.56l75.07,55.73-.47.29c-5.27,3.28-11,6.74-17,10.26l-.16.05a78.7,78.7,0,0,1-19.69-.87c-1.64-.24-3.07-.45-4.28-.55l-.84-.07c-15.12-1.25-23.4-.18-24.6,3.2-1.63,4.65-7.7,8.11-11.71,10.4-1,.55-1.8,1-2.39,1.42s-1.13.73-1.8,1.16c-3.11,2-7.8,4.95-10.92,8.75-1.65,2-4.13,8.5-6.76,15.36-.69,1.81-1.39,3.65-2.09,5.43l-.06.13-.13.07C49.56,481.92.62,500.17.13,500.35Zm.76-212v211c5.34-2,52-19.69,106.72-45.47.68-1.73,1.37-3.51,2-5.28,2.65-6.92,5.15-13.46,6.88-15.57,3.2-3.89,8-6.91,11.1-8.9.66-.43,1.27-.81,1.78-1.15s1.46-.89,2.44-1.45c3.92-2.23,9.83-5.61,11.38-10,1.78-5.05,15.33-4.53,25.36-3.69l.84.07c1.24.09,2.67.3,4.33.54a77.59,77.59,0,0,0,19.43.88c5.83-3.4,11.38-6.74,16.49-9.92L135,344.41c-4.06-4.15-25.12-16.83-32.24-19.42-3.88-1.41-9.45-1.49-14.84-1.57-4.68-.08-9.52-.15-13.39-1.08-7.43-1.78-23-12.66-29.29-17.25l-.14-.1a160.42,160.42,0,0,0-20.83-10.9C17.61,291.36,2.76,288.89.38,288.5Z" style="fill:#ebebeb"></path></g><g id="freepik--trees-1--inject-147"><path d="M372.19,275.29c.64.64,8.06.92,10.76.92s10.11-.28,10.75-.92-8.35-49.94-10.75-49.94S371.56,274.65,372.19,275.29Z" style="fill:#455a64"></path><path d="M372.05,262.73c1.83.7,8.62,3.46,10.08,4.27,0-.31,0-.62,0-.93q-2.46-1.44-4.93-2.87a58.52,58.52,0,0,1-5.29-3.15c-.09-.06,0-.23.07-.18a43.58,43.58,0,0,1,5.18,2.86c1.67,1,3.32,2,5,3,0-2.37,0-4.73,0-7.09a56.81,56.81,0,0,1-7.74-3.93c-.08-.05,0-.21.07-.17a56.84,56.84,0,0,1,7.67,3.78c0-1.23,0-2.46,0-3.68.07-6.33.08-12.66.24-19-1.61-.81-3.27-1.53-4.88-2.35-.1-.05,0-.23.08-.19,1.64.64,3.21,1.39,4.81,2.1.09-3.27.21-6.53.41-9.79a.09.09,0,0,1,.17,0c.23,6.06.21,12.13.13,18.19,1.67-1.33,3.45-2.51,5.14-3.8.07,0,.13.06.07.11-1.78,1.35-3.44,2.85-5.21,4.2,0,.34,0,.68,0,1,1.81-.82,3.64-1.59,5.47-2.38.15-.06.27.15.13.22-1.86.89-3.72,1.8-5.6,2.64-.05,3-.1,6-.14,9-.07,5.24-.18,10.49-.29,15.73q5.12-2.6,10.31-5c.13-.06.25.13.12.2a110.71,110.71,0,0,1-10.44,5.25c-.09,4.35-.18,8.71-.24,13.07a.21.21,0,0,1-.41,0c.06-5.56.07-11.12.08-16.68A100,100,0,0,1,371.92,263C371.75,263,371.87,262.66,372.05,262.73Z" style="fill:#37474f"></path><path d="M379.32,236.53c1.22.49,2.38-1.12,2.67-2.8s.54-2.69,1.18-3,.87,1.07,2.15.75.41-1.42-.36-3.1-.9-3.7-2.18-3.7-1.68,4.29-2.29,6S377.72,235.87,379.32,236.53Z" style="fill:#fff"></path><path d="M379.32,236.53a1.51,1.51,0,0,0,1.7-.64,4.54,4.54,0,0,0,.84-1.74c.15-.63.22-1.29.38-1.93a5.43,5.43,0,0,1,.33-.93,1.24,1.24,0,0,1,.73-.69c.41,0,.6.34.86.51a1.12,1.12,0,0,0,.84.31,1,1,0,0,0,.8-.34,1,1,0,0,0-.07-.87c-.24-.59-.57-1.16-.85-1.76a18.65,18.65,0,0,1-.69-1.84,3.57,3.57,0,0,0-.86-1.66.76.76,0,0,0-.8-.1,1.56,1.56,0,0,0-.55.72,22.3,22.3,0,0,0-1.07,3.74A17.65,17.65,0,0,1,379.5,233a10.9,10.9,0,0,0-.66,1.84,2.64,2.64,0,0,0-.06,1A.92.92,0,0,0,379.32,236.53Zm0,0a1,1,0,0,1-.56-.75,2.69,2.69,0,0,1,.05-1,11.32,11.32,0,0,1,.63-1.86,17.24,17.24,0,0,0,1.35-3.65,22,22,0,0,1,1-3.8,1.77,1.77,0,0,1,.62-.82,1,1,0,0,1,1,.11,3.67,3.67,0,0,1,1,1.75,18.89,18.89,0,0,0,.65,1.83c.27.6.59,1.16.83,1.79a.91.91,0,0,1-.9,1.43,1.35,1.35,0,0,1-.94-.36c-.26-.2-.47-.52-.75-.5-.59.2-.82.94-1,1.53s-.25,1.27-.41,1.91a4.5,4.5,0,0,1-.87,1.75A1.53,1.53,0,0,1,379.32,236.53Z" style="fill:#ebebeb"></path><path d="M413.25,316c-.87.87-11,1.25-14.64,1.25S384.84,316.84,384,316s11.37-68,14.64-68S414.11,315.1,413.25,316Z" style="fill:#37474f"></path><path d="M413.45,298.87c-2.49.95-11.74,4.71-13.73,5.81,0-.42,0-.84,0-1.26l6.7-3.91a79.31,79.31,0,0,0,7.22-4.29c.11-.08.05-.3-.1-.24a59.92,59.92,0,0,0-7.06,3.9c-2.27,1.33-4.52,2.7-6.76,4.09q0-4.83,0-9.65A77.18,77.18,0,0,0,410.2,288c.12-.06,0-.28-.09-.22a76,76,0,0,0-10.44,5.15c0-1.68,0-3.35,0-5-.09-8.61-.11-17.23-.33-25.85,2.19-1.1,4.45-2.08,6.64-3.19.14-.07,0-.32-.11-.26-2.22.86-4.36,1.89-6.55,2.85-.11-4.44-.28-8.88-.55-13.32a.12.12,0,0,0-.23,0c-.31,8.25-.28,16.51-.18,24.76-2.27-1.81-4.69-3.41-7-5.17-.09-.07-.18.09-.09.15,2.42,1.84,4.68,3.88,7.1,5.71,0,.47,0,.93,0,1.4-2.47-1.13-5-2.17-7.45-3.24-.2-.08-.37.2-.17.29,2.53,1.22,5.06,2.45,7.62,3.6q.09,6.13.19,12.27c.09,7.14.25,14.28.4,21.42q-7-3.53-14-6.86c-.18-.08-.34.17-.16.27A147.37,147.37,0,0,0,399,309.84c.13,5.93.25,11.86.32,17.8a.28.28,0,0,0,.56,0c-.08-7.57-.09-15.14-.11-22.7,2.45-.61,11.7-4.57,13.9-5.66C413.85,299.17,413.69,298.78,413.45,298.87Z" style="fill:#455a64"></path><path d="M402.35,258.3c-1.92,1.45-3.43-.3-4.49.29s-1.22,5.35-4.17,4.06c-1.89-.83,1.58-5.89,1.7-9,.07-1.88,1-6.36,3.22-6.24s2.13,4.82,2.72,5.94S403.91,257.14,402.35,258.3Z" style="fill:#fff"></path><path d="M402.35,258.3a2.8,2.8,0,0,1-2.42.52c-.42-.09-.82-.23-1.24-.3a1.44,1.44,0,0,0-.62,0,.93.93,0,0,0-.48.37c-.44.72-.64,1.57-1,2.34s-.89,1.6-1.83,1.68a2.14,2.14,0,0,1-1.25-.33,1.29,1.29,0,0,1-.43-1.21,10.45,10.45,0,0,1,.67-2.48,24.34,24.34,0,0,0,1.49-4.84,13.44,13.44,0,0,1,1.17-5,2.84,2.84,0,0,1,1.87-1.72,1.53,1.53,0,0,1,1.25.34,2.62,2.62,0,0,1,.74,1.06,10.78,10.78,0,0,1,.64,2.48l.22,1.26a3.13,3.13,0,0,0,.44,1.18,13.87,13.87,0,0,1,1.16,2.27,3.43,3.43,0,0,1,.23,1.26A1.43,1.43,0,0,1,402.35,258.3Zm0,0a1.4,1.4,0,0,0,.57-1.09,3.08,3.08,0,0,0-.24-1.24,13.87,13.87,0,0,0-1.18-2.26,3.19,3.19,0,0,1-.46-1.2l-.24-1.25a10.7,10.7,0,0,0-.67-2.45,1.78,1.78,0,0,0-1.85-1.3,2.71,2.71,0,0,0-1.72,1.65,13.35,13.35,0,0,0-1.09,4.92A24.26,24.26,0,0,1,393.9,259a9.88,9.88,0,0,0-.68,2.43,1.16,1.16,0,0,0,.35,1.08,2.06,2.06,0,0,0,1.17.31c.85-.05,1.4-.85,1.75-1.59a25.55,25.55,0,0,1,1.05-2.33.89.89,0,0,1,.52-.39,1.53,1.53,0,0,1,.64,0c.42.08.82.23,1.24.32A2.78,2.78,0,0,0,402.35,258.3Z" style="fill:#ebebeb"></path><path d="M457.42,345.81c1.17,1.17,14.78,1.69,19.74,1.69s18.57-.52,19.73-1.69-15.32-91.67-19.73-91.67S456.25,344.64,457.42,345.81Z" style="fill:#455a64"></path><path d="M457.14,322.75c3.37,1.28,15.83,6.36,18.52,7.84,0-.57,0-1.14,0-1.7-3-1.77-6-3.52-9-5.28a105.42,105.42,0,0,1-9.72-5.78c-.15-.11-.07-.41.13-.33a81,81,0,0,1,9.52,5.26c3.06,1.8,6.09,3.65,9.11,5.52,0-4.34,0-8.68.06-13A103.61,103.61,0,0,1,461.52,308c-.15-.09,0-.37.13-.3a103.89,103.89,0,0,1,14.08,6.94c0-2.25,0-4.51,0-6.76.12-11.62.15-23.24.44-34.86-3-1.49-6-2.81-9-4.3-.19-.1-.06-.44.15-.36,3,1.17,5.89,2.56,8.83,3.85.16-6,.39-12,.75-18a.16.16,0,0,1,.31,0c.41,11.12.38,22.26.24,33.39,3.06-2.44,6.32-4.6,9.44-7,.12-.1.24.11.12.2-3.26,2.48-6.31,5.22-9.57,7.69l0,1.89c3.32-1.52,6.69-2.93,10.05-4.37.26-.11.49.27.23.4-3.42,1.64-6.83,3.31-10.29,4.85-.08,5.52-.17,11-.24,16.55-.13,9.62-.34,19.25-.55,28.88q9.41-4.76,18.94-9.25c.24-.11.45.23.21.37a195.92,195.92,0,0,1-19.16,9.62c-.17,8-.34,16-.44,24a.38.38,0,0,1-.75,0c.11-10.2.12-20.4.15-30.61-3.3-.81-15.78-6.16-18.75-7.62C456.61,323.16,456.82,322.63,457.14,322.75Z" style="fill:#37474f"></path><path d="M470.5,274.66c2.23.91,4.36-2.06,4.89-5.14s1-4.93,2.18-5.55,1.59,2,3.93,1.38.76-2.61-.65-5.69-1.65-6.78-4-6.78-3.09,7.86-4.22,10.93S467.55,273.46,470.5,274.66Z" style="fill:#fff"></path><path d="M470.5,274.66a2.22,2.22,0,0,0,1.75-.05,4.17,4.17,0,0,0,1.39-1.11,8.48,8.48,0,0,0,1.55-3.21c.27-1.16.4-2.36.71-3.52a8.11,8.11,0,0,1,.61-1.71,2.19,2.19,0,0,1,1.3-1.23,1.1,1.1,0,0,1,.86.34l.67.6a2.26,2.26,0,0,0,1.6.58,2,2,0,0,0,1.52-.66,2,2,0,0,0-.11-1.65c-.45-1.1-1.05-2.15-1.55-3.24a30.06,30.06,0,0,1-1.26-3.39,6.73,6.73,0,0,0-1.62-3.08,2,2,0,0,0-.78-.32,1.11,1.11,0,0,0-.8.12,3.26,3.26,0,0,0-1,1.37,41.48,41.48,0,0,0-1.93,6.9c-.43,2.39-1.63,4.52-2.57,6.71a20.35,20.35,0,0,0-1.19,3.39,4.86,4.86,0,0,0-.12,1.78A1.75,1.75,0,0,0,470.5,274.66Zm0,0a1.73,1.73,0,0,1-1-1.38,4.92,4.92,0,0,1,.1-1.79,20.34,20.34,0,0,1,1.16-3.4c.93-2.21,2.1-4.34,2.51-6.72a41,41,0,0,1,1.88-7,3.38,3.38,0,0,1,1.11-1.46,1.32,1.32,0,0,1,.93-.16,2.06,2.06,0,0,1,.88.36,6.83,6.83,0,0,1,1.73,3.17A31.31,31.31,0,0,0,481,259.7c.49,1.1,1.08,2.14,1.53,3.27a2.09,2.09,0,0,1,.08,1.81,1.45,1.45,0,0,1-.76.55,2.76,2.76,0,0,1-.9.17,2.34,2.34,0,0,1-1.69-.63l-.67-.6a1,1,0,0,0-.75-.32,2.15,2.15,0,0,0-1.23,1.16,8.22,8.22,0,0,0-.61,1.68c-.31,1.16-.46,2.35-.74,3.52a8.41,8.41,0,0,1-1.59,3.21,4.05,4.05,0,0,1-1.4,1.1A2.2,2.2,0,0,1,470.5,274.66Z" style="fill:#ebebeb"></path><path d="M365.16,267.52c-.49.49-6.19.71-8.26.71s-7.77-.22-8.26-.71,6.41-38.36,8.26-38.36S365.65,267,365.16,267.52Z" style="fill:#455a64"></path><path d="M365.28,257.87c-1.41.54-6.63,2.66-7.75,3.28,0-.23,0-.47,0-.71l3.79-2.21a44,44,0,0,0,4.07-2.42c.06,0,0-.17-.06-.13a33.52,33.52,0,0,0-4,2.2c-1.29.75-2.55,1.52-3.82,2.31,0-1.82,0-3.63,0-5.45a43.61,43.61,0,0,0,5.94-3c.07,0,0-.16-.05-.13a43.53,43.53,0,0,0-5.89,2.91c0-.95,0-1.89,0-2.84-.06-4.86-.06-9.72-.19-14.58,1.24-.63,2.51-1.18,3.75-1.8.08,0,0-.19-.06-.15-1.26.49-2.47,1.07-3.7,1.61q-.09-3.77-.31-7.52c0-.08-.13-.08-.13,0-.18,4.66-.16,9.32-.1,14-1.28-1-2.65-1.93-3.95-2.92-.05,0-.1,0-.05.08,1.36,1,2.63,2.19,4,3.22,0,.27,0,.53,0,.79-1.39-.63-2.8-1.22-4.2-1.82-.11-.05-.21.11-.1.16,1.43.69,2.86,1.38,4.31,2,0,2.31.07,4.62.1,6.92.05,4,.14,8.06.23,12.09-2.63-1.32-5.27-2.62-7.93-3.87-.1,0-.19.1-.09.16a83.38,83.38,0,0,0,8,4c.07,3.35.14,6.7.19,10.05a.16.16,0,0,0,.31,0c0-4.27,0-8.54-.06-12.81a78.91,78.91,0,0,0,7.84-3.19C365.5,258,365.41,257.82,365.28,257.87Z" style="fill:#37474f"></path><path d="M359.68,237.75c-.93.38-1.82-.86-2-2.15s-.42-2.07-.91-2.33-.67.83-1.65.58-.31-1.09.27-2.38.69-2.84,1.68-2.84,1.29,3.29,1.76,4.58S360.92,237.24,359.68,237.75Z" style="fill:#fff"></path><path d="M359.68,237.75a1.19,1.19,0,0,1-1.32-.48,3.76,3.76,0,0,1-.67-1.34c-.12-.49-.18-1-.32-1.47s-.32-1-.76-1.16c-.2,0-.36.23-.56.39a1,1,0,0,1-.73.28,1,1,0,0,1-.75-.32.94.94,0,0,1,0-.82c.19-.48.44-.91.64-1.37a12.94,12.94,0,0,0,.51-1.4,2.82,2.82,0,0,1,.75-1.37.78.78,0,0,1,.83-.08,1.44,1.44,0,0,1,.49.64,16.84,16.84,0,0,1,.76,2.93,13.23,13.23,0,0,0,1,2.82,8.82,8.82,0,0,1,.49,1.42C360.18,236.88,360.2,237.53,359.68,237.75Zm0,0c.52-.23.49-.87.38-1.32a8.86,8.86,0,0,0-.5-1.42,13.28,13.28,0,0,1-1.11-2.8,17,17,0,0,0-.84-2.87,1.2,1.2,0,0,0-.41-.54.57.57,0,0,0-.58.08,2.75,2.75,0,0,0-.65,1.26,13.63,13.63,0,0,1-.53,1.42c-.21.46-.46.9-.65,1.35-.08.22-.16.47-.06.63a.78.78,0,0,0,.59.26.88.88,0,0,0,.64-.23c.19-.12.34-.41.67-.39.56.21.68.8.81,1.26s.18,1,.29,1.48a3.41,3.41,0,0,0,.65,1.34A1.15,1.15,0,0,0,359.68,237.75Z" style="fill:#ebebeb"></path><path d="M401.85,343.19c1.57,1.57,19.9,2.27,26.57,2.27s25-.7,26.56-2.27-20.62-123.41-26.56-123.41S400.28,341.61,401.85,343.19Z" style="fill:#455a64"></path><path d="M401.48,312.14c4.53,1.73,21.3,8.56,24.93,10.55,0-.76,0-1.53,0-2.29q-6.07-3.57-12.17-7.1c-4.35-2.53-9-4.79-13.09-7.78-.2-.15-.09-.55.18-.44,4.48,1.87,8.64,4.63,12.81,7.08s8.2,4.91,12.27,7.42q0-8.76.07-17.52a139.4,139.4,0,0,1-19.11-9.71c-.21-.13-.07-.51.17-.41a140,140,0,0,1,18.95,9.34c0-3,0-6.07.07-9.11.16-15.63.19-31.28.59-46.91-4-2-8.07-3.78-12.05-5.8-.26-.13-.08-.58.2-.48,4,1.58,7.92,3.45,11.88,5.19.22-8.07.53-16.13,1-24.18a.21.21,0,0,1,.41,0c.56,15,.51,30,.33,44.95,4.12-3.29,8.51-6.2,12.7-9.39.17-.13.32.15.16.27-4.38,3.34-8.48,7-12.88,10.36l0,2.54c4.47-2,9-3.94,13.51-5.88.36-.15.67.36.31.53-4.6,2.21-9.18,4.45-13.84,6.54-.1,7.42-.23,14.84-.33,22.26-.17,13-.45,25.92-.73,38.88q12.66-6.39,25.49-12.44a.28.28,0,0,1,.29.49,266.78,266.78,0,0,1-25.8,12.95c-.23,10.77-.45,21.54-.59,32.31a.51.51,0,0,1-1,0c.15-13.73.17-27.47.21-41.21-4.45-1.09-21.25-8.29-25.25-10.26C400.75,312.69,401,312,401.48,312.14Z" style="fill:#37474f"></path><path d="M419.46,247.41c3,1.22,5.87-2.77,6.58-6.92s1.35-6.64,2.93-7.47,2.14,2.64,5.3,1.86,1-3.51-.88-7.66-2.22-9.13-5.37-9.13-4.16,10.58-5.68,14.72S415.49,245.79,419.46,247.41Z" style="fill:#fff"></path><path d="M419.46,247.41a3,3,0,0,0,2.35-.07,5.33,5.33,0,0,0,1.87-1.49,11.09,11.09,0,0,0,2.1-4.32c.37-1.56.55-3.18,1-4.74a10.4,10.4,0,0,1,.81-2.29,3,3,0,0,1,1.74-1.65,1.46,1.46,0,0,1,1.14.46c.31.26.59.55.9.8a3.76,3.76,0,0,0,1,.62,2.85,2.85,0,0,0,1.16.17,3.79,3.79,0,0,0,1.15-.23,1.8,1.8,0,0,0,.92-.67,2.67,2.67,0,0,0-.15-2.25c-.6-1.49-1.41-2.89-2.08-4.37a43.6,43.6,0,0,1-1.69-4.55,22.7,22.7,0,0,0-.84-2.26,5,5,0,0,0-1.36-1.9,2.46,2.46,0,0,0-1.06-.43,1.5,1.5,0,0,0-1.1.17,4.43,4.43,0,0,0-1.41,1.85c-1.29,3-1.82,6.18-2.59,9.31a22.7,22.7,0,0,1-1.47,4.61l-2,4.42a27.37,27.37,0,0,0-1.59,4.56,6.48,6.48,0,0,0-.16,2.4A2.24,2.24,0,0,0,419.46,247.41Zm0,0a2.28,2.28,0,0,1-1.39-1.85,6.7,6.7,0,0,1,.15-2.4,26.34,26.34,0,0,1,1.57-4.58l2-4.43a23.23,23.23,0,0,0,1.43-4.61c.75-3.14,1.25-6.36,2.54-9.36a4.54,4.54,0,0,1,1.47-2,1.74,1.74,0,0,1,1.24-.2,2.6,2.6,0,0,1,1.16.46,5.15,5.15,0,0,1,1.44,2,21.62,21.62,0,0,1,.87,2.27,41.61,41.61,0,0,0,1.65,4.54c.65,1.47,1.45,2.88,2.05,4.39a5.38,5.38,0,0,1,.33,1.19,1.75,1.75,0,0,1-.21,1.22,1.88,1.88,0,0,1-1,.73,4.13,4.13,0,0,1-1.21.24,3,3,0,0,1-1.21-.19,4.19,4.19,0,0,1-1.05-.65c-.31-.26-.6-.55-.9-.81a1.38,1.38,0,0,0-1-.44,2.91,2.91,0,0,0-1.67,1.58,11.28,11.28,0,0,0-.81,2.26c-.43,1.56-.62,3.17-1,4.74a11.43,11.43,0,0,1-2.13,4.32,5.58,5.58,0,0,1-1.89,1.49A3,3,0,0,1,419.46,247.41Z" style="fill:#ebebeb"></path><path d="M131.37,353.79c1.42,1.42,18,2,24,2s22.57-.63,24-2-18.62-111.39-24-111.39S130,352.37,131.37,353.79Z" style="fill:#37474f"></path><path d="M131,325.76c4.09,1.56,19.23,7.73,22.5,9.53,0-.69,0-1.38,0-2.07-3.65-2.15-7.32-4.28-11-6.41-3.93-2.29-8.16-4.33-11.82-7-.18-.13-.08-.5.16-.4,4.05,1.68,7.8,4.18,11.57,6.39s7.4,4.43,11.07,6.7c0-5.27,0-10.54.07-15.81a126.58,126.58,0,0,1-17.26-8.77c-.19-.12-.06-.46.16-.37a127.34,127.34,0,0,1,17.1,8.43c0-2.74,0-5.48.06-8.22.15-14.11.18-28.24.54-42.35-3.59-1.81-7.29-3.41-10.88-5.23-.23-.12-.07-.53.19-.43,3.64,1.42,7.14,3.1,10.72,4.68.19-7.29.47-14.56.91-21.83a.19.19,0,0,1,.38,0c.5,13.51.46,27,.29,40.57,3.72-3,7.69-5.59,11.47-8.47.15-.11.29.13.15.24-4,3-7.66,6.35-11.63,9.36l0,2.29c4-1.85,8.12-3.56,12.2-5.31.32-.13.6.32.28.48-4.15,2-8.29,4-12.5,5.9-.09,6.7-.21,13.4-.29,20.1-.16,11.7-.41,23.4-.66,35.1q11.42-5.77,23-11.24c.29-.14.55.28.25.44a238.85,238.85,0,0,1-23.28,11.7c-.21,9.72-.41,19.44-.53,29.16a.46.46,0,0,1-.92,0c.13-12.4.15-24.79.19-37.19-4-1-19.18-7.49-22.79-9.27C130.38,326.26,130.64,325.61,131,325.76Z" style="fill:#455a64"></path><path d="M149.22,259.29c3.16,2.38,5.63-.49,7.36.47s2,8.77,6.84,6.65c3.09-1.35-2.59-9.64-2.79-14.75-.12-3.08-1.59-10.41-5.28-10.21s-3.49,7.9-4.45,9.73S146.68,257.38,149.22,259.29Z" style="fill:#fff"></path><path d="M149.22,259.29a4.55,4.55,0,0,0,4,.81c.68-.15,1.34-.39,2-.52a2.66,2.66,0,0,1,1,0,1.49,1.49,0,0,1,.83.63,40.81,40.81,0,0,1,1.71,3.82,6.9,6.9,0,0,0,1.12,1.74,2.65,2.65,0,0,0,1.78.9,3.91,3.91,0,0,0,2-.49,2,2,0,0,0,.59-1.84,17.28,17.28,0,0,0-1.12-4c-1-2.61-2.15-5.17-2.56-8a27.07,27.07,0,0,0-.51-4.14,16.92,16.92,0,0,0-1.29-4,7.35,7.35,0,0,0-1.14-1.72,3.26,3.26,0,0,0-1.73-1,2.37,2.37,0,0,0-1.9.5,4.11,4.11,0,0,0-1.18,1.66,17.81,17.81,0,0,0-1.08,4c-.13.69-.24,1.38-.39,2.06a5.14,5.14,0,0,1-.74,2,22.88,22.88,0,0,0-1.94,3.7,5.1,5.1,0,0,0-.38,2A2.34,2.34,0,0,0,149.22,259.29Zm0,0a2.35,2.35,0,0,1-.95-1.79,5.32,5.32,0,0,1,.37-2.05,24.17,24.17,0,0,1,1.91-3.72,5,5,0,0,0,.72-1.94c.14-.69.25-1.38.37-2.06a18.41,18.41,0,0,1,1.07-4.06,4.23,4.23,0,0,1,1.2-1.72,2.53,2.53,0,0,1,2-.54,3.45,3.45,0,0,1,1.83,1,7.39,7.39,0,0,1,1.17,1.76,16.37,16.37,0,0,1,1.34,4,26.63,26.63,0,0,1,.55,4.16c.37,2.75,1.54,5.33,2.48,8a16.64,16.64,0,0,1,1.1,4.05,2.09,2.09,0,0,1-.66,2,4,4,0,0,1-2.05.51,2.78,2.78,0,0,1-1.85-1,7,7,0,0,1-1.12-1.77,39.76,39.76,0,0,0-1.68-3.82,1.41,1.41,0,0,0-.8-.62,2.5,2.5,0,0,0-1,0c-.69.12-1.35.36-2,.5a4.5,4.5,0,0,1-4-.84Z" style="fill:#ebebeb"></path><path d="M303.2,249.62c.44.44,5.59.64,7.46.64s7-.2,7.46-.64S312.33,215,310.66,215,302.76,249.18,303.2,249.62Z" style="fill:#37474f"></path><path d="M303.1,240.9c1.27.49,6,2.41,7,3,0-.22,0-.43,0-.65l-3.42-2a42.2,42.2,0,0,1-3.67-2.18c-.06-.05,0-.16.05-.13a31.46,31.46,0,0,1,3.59,2c1.16.68,2.31,1.38,3.45,2.08,0-1.64,0-3.28,0-4.92a38.09,38.09,0,0,1-5.37-2.72c-.06,0,0-.15.05-.12a39.76,39.76,0,0,1,5.32,2.62c0-.85,0-1.7,0-2.55.05-4.39.05-8.78.17-13.17-1.12-.57-2.27-1.06-3.39-1.63-.07,0,0-.17.06-.14,1.13.45,2.22,1,3.33,1.46.06-2.26.15-4.53.29-6.79,0-.07.11-.07.12,0,.15,4.2.14,8.41.09,12.62,1.15-.92,2.39-1.74,3.56-2.63.05,0,.09,0,.05.07-1.23.94-2.38,2-3.62,2.91,0,.24,0,.48,0,.71,1.26-.57,2.53-1.1,3.8-1.65.1,0,.19.1.09.15-1.3.62-2.58,1.25-3.89,1.84,0,2.08-.07,4.16-.09,6.25-.05,3.64-.13,7.28-.21,10.91,2.37-1.19,4.76-2.36,7.16-3.49.09,0,.17.09.08.14a75.27,75.27,0,0,1-7.24,3.63c-.07,3-.13,6-.17,9.08a.15.15,0,0,1-.29,0c.05-3.86.05-7.72.06-11.57a69.52,69.52,0,0,1-7.08-2.89C302.89,241.06,303,240.86,303.1,240.9Z" style="fill:#455a64"></path><path d="M308.75,220.23c1,.74,1.75-.15,2.29.15s.62,2.72,2.13,2.06c1-.42-.81-3-.87-4.58,0-1-.5-3.24-1.64-3.18s-1.09,2.46-1.39,3S308,219.64,308.75,220.23Z" style="fill:#fff"></path><path d="M308.75,220.23a1.43,1.43,0,0,0,1.23.25c.21,0,.42-.13.63-.17a.54.54,0,0,1,.59.21,11.41,11.41,0,0,1,.55,1.18c.18.37.47.77.89.79a1,1,0,0,0,.57-.16.58.58,0,0,0,.15-.52,5,5,0,0,0-.36-1.22,12.36,12.36,0,0,1-.8-2.5,6.74,6.74,0,0,0-.55-2.49c-.18-.37-.44-.75-.83-.82a.85.85,0,0,0-.91.63,5.11,5.11,0,0,0-.35,1.23,3.61,3.61,0,0,1-.37,1.25,7,7,0,0,0-.61,1.15A1,1,0,0,0,308.75,220.23Zm0,0a1,1,0,0,1-.18-1.2,6.66,6.66,0,0,1,.59-1.16,3.44,3.44,0,0,0,.32-1.24,5.83,5.83,0,0,1,.31-1.28,1,1,0,0,1,1.06-.74,1.47,1.47,0,0,1,1,.89,6.57,6.57,0,0,1,.6,2.56,12.37,12.37,0,0,0,.76,2.45,5.55,5.55,0,0,1,.33,1.29.69.69,0,0,1-.24.65,1.12,1.12,0,0,1-.66.16c-.5,0-.78-.5-.95-.88a9.68,9.68,0,0,0-.51-1.19.49.49,0,0,0-.55-.2c-.22,0-.42.11-.64.15A1.43,1.43,0,0,1,308.75,220.23Z" style="fill:#ebebeb"></path><path d="M487.87,447.71c-2.25,2.25-28.48,3.25-38,3.25s-35.76-1-38-3.25,29.51-176.57,38-176.57S490.12,445.46,487.87,447.71Z" style="fill:#37474f"></path><path d="M488.39,403.29c-6.48,2.47-30.48,12.25-35.66,15.1,0-1.1,0-2.19,0-3.28,5.79-3.41,11.6-6.78,17.41-10.16,6.23-3.62,12.92-6.86,18.74-11.13.28-.21.12-.79-.27-.63-6.41,2.67-12.35,6.62-18.33,10.12s-11.73,7-17.55,10.62c0-8.35,0-16.7-.11-25.06A199.12,199.12,0,0,0,480,375c.3-.18.1-.73-.25-.59a201.26,201.26,0,0,0-27.12,13.37c0-4.34,0-8.69-.09-13-.24-22.37-.28-44.76-.85-67.13,5.69-2.87,11.55-5.4,17.24-8.29.37-.19.11-.84-.29-.69-5.77,2.26-11.33,4.93-17,7.42-.3-11.54-.75-23.08-1.45-34.6a.3.3,0,0,0-.59,0c-.8,21.42-.73,42.87-.47,64.32-5.89-4.71-12.18-8.87-18.18-13.44-.23-.17-.46.22-.23.4,6.28,4.77,12.15,10.06,18.44,14.82,0,1.21,0,2.42,0,3.63-6.39-2.92-12.88-5.64-19.34-8.41-.5-.22-1,.51-.44.76,6.58,3.15,13.14,6.37,19.81,9.35.15,10.62.33,21.24.47,31.86.24,18.55.65,37.09,1,55.63q-18.1-9.15-36.47-17.81c-.46-.22-.87.44-.41.7a381,381,0,0,0,36.91,18.54c.33,15.41.65,30.82.85,46.23a.73.73,0,0,0,1.45,0c-.21-19.65-.25-39.31-.3-59,6.36-1.57,30.4-11.87,36.12-14.69C489.43,404.07,489,403.05,488.39,403.29Z" style="fill:#455a64"></path><path d="M459.57,297.93c-5,3.76-8.92-.79-11.67.74s-3.16,13.89-10.84,10.54c-4.9-2.14,4.12-15.28,4.43-23.38.18-4.88,2.52-16.5,8.36-16.19s5.54,12.53,7.07,15.43S463.6,294.9,459.57,297.93Z" style="fill:#fff"></path><path d="M459.57,297.93a7.69,7.69,0,0,1-3,1.39,7.81,7.81,0,0,1-3.3-.08c-1.09-.22-2.13-.61-3.22-.79a3.94,3.94,0,0,0-1.64,0,2.92,2.92,0,0,0-.73.36,2.63,2.63,0,0,0-.54.61,16.08,16.08,0,0,0-1.4,3c-.4,1-.79,2.07-1.26,3.07a11,11,0,0,1-1.78,2.81,4.34,4.34,0,0,1-2.91,1.5,5.88,5.88,0,0,1-3.22-.81,2.32,2.32,0,0,1-.92-1.39,4.76,4.76,0,0,1-.11-1.68,26.8,26.8,0,0,1,1.74-6.41c.77-2.08,1.58-4.13,2.31-6.22a32.48,32.48,0,0,0,1.66-6.39c.12-1.09.13-2.21.28-3.31s.33-2.2.56-3.28a27.55,27.55,0,0,1,2.11-6.31,11.5,11.5,0,0,1,1.86-2.77,5,5,0,0,1,2.87-1.64,3.93,3.93,0,0,1,3.17.83,7.06,7.06,0,0,1,1.9,2.72,29.79,29.79,0,0,1,1.69,6.42c.19,1.09.36,2.19.58,3.27a12.51,12.51,0,0,0,.41,1.6,8.18,8.18,0,0,0,.74,1.48,36.88,36.88,0,0,1,3,5.89,8.44,8.44,0,0,1,.6,3.25A3.77,3.77,0,0,1,459.57,297.93Zm0,0a3.75,3.75,0,0,0,1.49-2.85,8.14,8.14,0,0,0-.61-3.23,36.47,36.47,0,0,0-3.06-5.88,8.27,8.27,0,0,1-.76-1.48,15.24,15.24,0,0,1-.42-1.61c-.22-1.09-.4-2.18-.6-3.27a29.25,29.25,0,0,0-1.7-6.39,7.09,7.09,0,0,0-1.88-2.66,3.77,3.77,0,0,0-3-.79,5,5,0,0,0-2.78,1.61,11.37,11.37,0,0,0-1.81,2.73,27.11,27.11,0,0,0-2.06,6.27q-.34,1.62-.54,3.27c-.15,1.09-.15,2.19-.28,3.31a31.72,31.72,0,0,1-1.69,6.43c-.74,2.09-1.57,4.14-2.34,6.22a26.74,26.74,0,0,0-1.77,6.36,3.14,3.14,0,0,0,1,2.94,5.71,5.71,0,0,0,3.13.79,4.19,4.19,0,0,0,2.84-1.45,10.71,10.71,0,0,0,1.77-2.77c.48-1,.87-2,1.28-3.06a16.47,16.47,0,0,1,1.42-3,2.76,2.76,0,0,1,.56-.62,2.62,2.62,0,0,1,.75-.37,4,4,0,0,1,1.66,0c1.09.19,2.13.58,3.22.81a7.17,7.17,0,0,0,6.27-1.28Z" style="fill:#ebebeb"></path><path d="M18.69,300.53c1.17,1.17,14.78,1.69,19.74,1.69s18.57-.52,19.73-1.69-15.32-91.68-19.73-91.68S17.52,299.36,18.69,300.53Z" style="fill:#455a64"></path><path d="M18.42,277.47c3.36,1.28,15.82,6.35,18.51,7.83,0-.56,0-1.13,0-1.7q-4.5-2.66-9-5.27a105.42,105.42,0,0,1-9.72-5.78c-.15-.11-.07-.41.13-.33a81,81,0,0,1,9.52,5.26c3.06,1.79,6.09,3.65,9.11,5.51,0-4.34,0-8.67.06-13a102.92,102.92,0,0,1-14.2-7.22c-.16-.09-.06-.38.12-.3A102.73,102.73,0,0,1,37,269.4c0-2.26,0-4.51,0-6.77.13-11.61.15-23.24.44-34.85-3-1.49-6-2.81-9-4.31-.19-.1-.06-.43.15-.35,3,1.17,5.89,2.55,8.83,3.85.16-6,.39-12,.75-18a.16.16,0,0,1,.31,0c.41,11.13.38,22.26.24,33.4,3.06-2.45,6.33-4.61,9.44-7,.12-.09.24.11.12.2-3.26,2.48-6.3,5.23-9.57,7.7l0,1.89c3.32-1.52,6.69-2.93,10-4.37.26-.11.49.26.23.39-3.42,1.64-6.83,3.31-10.29,4.86-.08,5.51-.17,11-.24,16.54-.13,9.63-.34,19.26-.54,28.89q9.39-4.75,18.93-9.25c.24-.11.45.23.21.36A197.12,197.12,0,0,1,38,292.26c-.17,8-.34,16-.44,24a.38.38,0,0,1-.75,0c.11-10.2.12-20.41.15-30.61-3.3-.82-15.78-6.16-18.75-7.63C17.88,277.87,18.09,277.34,18.42,277.47Z" style="fill:#37474f"></path><path d="M31.78,229.37c2.22.91,4.35-2.05,4.88-5.13s1-4.94,2.18-5.55,1.59,2,3.93,1.38.76-2.61-.65-5.7-1.64-6.78-4-6.78-3.09,7.87-4.22,10.94S28.82,228.17,31.78,229.37Z" style="fill:#fff"></path><path d="M31.78,229.37a2.15,2.15,0,0,0,1.74-.05,3.93,3.93,0,0,0,1.39-1.11,8.29,8.29,0,0,0,1.55-3.2c.27-1.16.4-2.37.71-3.53a8.62,8.62,0,0,1,.61-1.7,2.21,2.21,0,0,1,1.3-1.24,1.13,1.13,0,0,1,.86.34l.67.6a2.27,2.27,0,0,0,1.6.59,2,2,0,0,0,1.52-.67,2,2,0,0,0-.11-1.65c-.45-1.1-1-2.14-1.55-3.24a29.91,29.91,0,0,1-1.26-3.38,6.68,6.68,0,0,0-1.62-3.08,1.73,1.73,0,0,0-.78-.32,1.11,1.11,0,0,0-.8.12,3.31,3.31,0,0,0-1,1.36,42.58,42.58,0,0,0-1.93,6.91c-.43,2.38-1.63,4.52-2.57,6.71a20.35,20.35,0,0,0-1.19,3.39,5.07,5.07,0,0,0-.12,1.78A1.73,1.73,0,0,0,31.78,229.37Zm0,0a1.74,1.74,0,0,1-1-1.37,4.91,4.91,0,0,1,.1-1.79A20.45,20.45,0,0,1,32,222.8c.93-2.21,2.1-4.33,2.51-6.71a41.4,41.4,0,0,1,1.88-7,3.41,3.41,0,0,1,1.11-1.45,1.32,1.32,0,0,1,.93-.16,2.17,2.17,0,0,1,.88.35,6.86,6.86,0,0,1,1.73,3.18,32.11,32.11,0,0,0,1.21,3.37c.49,1.09,1.08,2.14,1.53,3.27a2.07,2.07,0,0,1,.08,1.8,1.41,1.41,0,0,1-.75.55,3.2,3.2,0,0,1-.91.18,2.4,2.4,0,0,1-1.69-.63l-.67-.6a1,1,0,0,0-.75-.32,2.12,2.12,0,0,0-1.23,1.16,7.47,7.47,0,0,0-.6,1.68c-.32,1.15-.46,2.34-.75,3.51a8.34,8.34,0,0,1-1.59,3.21,4,4,0,0,1-1.4,1.11A2.18,2.18,0,0,1,31.78,229.37Z" style="fill:#ebebeb"></path><path d="M125.14,381.25c-2.28,2.29-28.89,3.3-38.57,3.3s-36.29-1-38.58-3.3S77.94,202.08,86.57,202.08,127.43,379,125.14,381.25Z" style="fill:#455a64"></path><path d="M125.68,336.18c-6.58,2.51-30.93,12.42-36.19,15.32,0-1.11,0-2.22,0-3.33,5.88-3.46,11.77-6.88,17.67-10.31,6.32-3.68,13.11-7,19-11.3.29-.21.13-.8-.27-.64-6.5,2.71-12.54,6.73-18.6,10.28S95.37,343.33,89.47,347c0-8.48,0-17-.11-25.43a203.29,203.29,0,0,0,27.76-14.11c.3-.18.1-.74-.25-.6a204.84,204.84,0,0,0-27.52,13.57c0-4.41,0-8.82-.09-13.23-.25-22.69-.29-45.42-.87-68.12,5.78-2.91,11.73-5.48,17.5-8.41.38-.19.11-.85-.3-.7-5.85,2.29-11.5,5-17.24,7.53-.32-11.71-.76-23.42-1.48-35.11a.3.3,0,0,0-.6,0c-.81,21.74-.74,43.5-.47,65.27-6-4.78-12.36-9-18.45-13.64-.24-.18-.47.22-.23.4,6.36,4.84,12.32,10.21,18.7,15,0,1.23,0,2.46.05,3.69-6.49-3-13.07-5.73-19.63-8.53-.51-.22-1,.51-.45.76,6.68,3.21,13.34,6.47,20.1,9.49.16,10.78.34,21.56.48,32.33.25,18.82.66,37.64,1.06,56.46q-18.36-9.3-37-18.08c-.47-.22-.88.45-.41.72a389.89,389.89,0,0,0,37.45,18.81c.33,15.63.66,31.27.86,46.91a.74.74,0,0,0,1.47,0c-.21-19.94-.25-39.89-.3-59.83,6.46-1.6,30.85-12.05,36.65-14.91C126.73,337,126.31,335.93,125.68,336.18Z" style="fill:#37474f"></path><path d="M71.08,251.8c3.83,4.38,8.7,1,10.6-3.39s6.06-8.29,8.63-6.84,4.62,7.54,10.6,6.46-.56-11.28-1.94-15.31,3-3.68,0-11.31-6.61-12.78-9-16.59-4.26-5.55-7.85,2.55S76.64,230.3,75.07,233,67.87,248.14,71.08,251.8Z" style="fill:#fff"></path><path d="M71.08,251.8a5.45,5.45,0,0,0,3.92,2,6.22,6.22,0,0,0,4.08-1.76c2.37-2,2.9-5.29,5-7.57a10.48,10.48,0,0,1,3.49-2.89,3.4,3.4,0,0,1,2.24-.29,4.3,4.3,0,0,1,1.85,1.32c1,1.11,1.93,2.35,3.05,3.37a7.23,7.23,0,0,0,3.95,2,7.07,7.07,0,0,0,1.13.06c.37,0,.75-.08,1.12-.11a2.92,2.92,0,0,0,1.9-1.06,3.53,3.53,0,0,0,.54-2.12,10.51,10.51,0,0,0-.37-2.22,63.75,63.75,0,0,0-3.49-8.39,12.25,12.25,0,0,1-.78-2.15,3.9,3.9,0,0,1,.22-2.29,18.34,18.34,0,0,0,.82-2.11,6.15,6.15,0,0,0,.16-2.22,16.1,16.1,0,0,0-1.2-4.34c-.57-1.41-1.19-2.79-1.85-4.15a83.14,83.14,0,0,0-4.38-8L90,205.1a22,22,0,0,0-1.26-1.88,4,4,0,0,0-1.67-1.41,1.9,1.9,0,0,0-1.95.66,9.16,9.16,0,0,0-1.34,1.8,29.46,29.46,0,0,0-2,4.07,67.09,67.09,0,0,0-2.7,8.68c-.74,2.94-1.38,5.91-2,8.87-.33,1.49-.66,3-1,4.44a18.18,18.18,0,0,1-.71,2.16c-.31.71-.72,1.34-1,2A53.48,53.48,0,0,0,71,243a23.41,23.41,0,0,0-.85,4.46A6.11,6.11,0,0,0,71.08,251.8Zm0,0a6.16,6.16,0,0,1-.94-4.34A23.34,23.34,0,0,1,71,243a53,53,0,0,1,3.26-8.5c.3-.69.73-1.33,1-2a18.09,18.09,0,0,0,.69-2.16c.38-1.47.71-2.95,1-4.44.65-3,1.28-5.93,2-8.88a68.36,68.36,0,0,1,2.67-8.71,29.81,29.81,0,0,1,2-4.1A9.78,9.78,0,0,1,85,202.34l.44-.38c.16-.11.34-.19.52-.29a2.72,2.72,0,0,1,.58-.13,1.66,1.66,0,0,1,.59.09,4.07,4.07,0,0,1,1.76,1.47A19.6,19.6,0,0,1,90.2,205l2.43,3.85a83.74,83.74,0,0,1,4.43,8c.65,1.37,1.27,2.76,1.83,4.17a16.4,16.4,0,0,1,1.21,4.41,6.11,6.11,0,0,1-.18,2.29,18.1,18.1,0,0,1-.83,2.13,3.79,3.79,0,0,0-.22,2.18,12.78,12.78,0,0,0,.76,2.12,61.84,61.84,0,0,1,3.47,8.42,10.15,10.15,0,0,1,.36,2.26,3.6,3.6,0,0,1-.57,2.21,3.07,3.07,0,0,1-2,1.1c-.38,0-.76.09-1.14.11a7.2,7.2,0,0,1-1.14-.07,7.32,7.32,0,0,1-4-2.06c-1.13-1-2-2.28-3-3.39a4.14,4.14,0,0,0-1.8-1.3,3.39,3.39,0,0,0-2.19.28,10.52,10.52,0,0,0-3.47,2.86c-2.07,2.26-2.62,5.53-5,7.55a6.24,6.24,0,0,1-4.1,1.76A5.43,5.43,0,0,1,71.08,251.8Z" style="fill:#ebebeb"></path><path d="M80.19,434.92c-1.94,1.94-24.58,2.8-32.81,2.8s-30.87-.86-32.81-2.8S40,282.51,47.38,282.51,82.14,433,80.19,434.92Z" style="fill:#37474f"></path><path d="M80.65,396.58c-5.59,2.13-26.31,10.57-30.79,13,0-.95,0-1.89,0-2.83,5-2.94,10-5.85,15-8.77,5.38-3.13,11.15-5.92,16.17-9.61.24-.18.11-.68-.23-.54-5.53,2.3-10.66,5.71-15.82,8.74s-10.13,6.06-15.15,9.16q0-10.81-.09-21.63a172.21,172.21,0,0,0,23.61-12c.26-.15.08-.63-.21-.51a174.09,174.09,0,0,0-23.41,11.54c0-3.75,0-7.5-.08-11.25-.21-19.3-.25-38.63-.74-57.94,4.92-2.48,10-4.66,14.88-7.16.33-.16.1-.72-.24-.59-5,1.95-9.79,4.25-14.68,6.4-.26-10-.64-19.92-1.25-29.86a.26.26,0,0,0-.51,0c-.69,18.49-.63,37-.4,55.51-5.09-4.06-10.52-7.65-15.7-11.59-.2-.15-.39.19-.19.34,5.41,4.12,10.48,8.68,15.91,12.79,0,1.05,0,2.09,0,3.14-5.52-2.53-11.12-4.87-16.7-7.26-.43-.19-.82.44-.38.65,5.68,2.72,11.34,5.5,17.1,8.07.13,9.17.28,18.34.4,27.5.21,16,.56,32,.91,48Q32.49,412,16.64,404.56c-.41-.19-.76.38-.36.61a329.2,329.2,0,0,0,31.86,16c.28,13.3.56,26.6.73,39.9a.63.63,0,0,0,1.25,0c-.18-17-.21-33.93-.26-50.89,5.5-1.36,26.25-10.25,31.18-12.68C81.55,397.25,81.19,396.37,80.65,396.58Z" style="fill:#455a64"></path><path d="M55.77,305.63c-4.32,3.25-7.7-.68-10.07.64s-2.73,12-9.36,9.1c-4.23-1.85,3.55-13.19,3.82-20.18.16-4.22,2.18-14.24,7.22-14s4.78,10.81,6.1,13.32S59.25,303,55.77,305.63Z" style="fill:#fff"></path><path d="M55.77,305.63a6.22,6.22,0,0,1-5.42,1.13c-.94-.19-1.84-.52-2.78-.68a3.52,3.52,0,0,0-1.41,0,2.84,2.84,0,0,0-.63.31,2.38,2.38,0,0,0-.47.53c-1,1.62-1.45,3.52-2.29,5.23a9.35,9.35,0,0,1-1.54,2.43,3.75,3.75,0,0,1-2.52,1.3,5,5,0,0,1-2.78-.69,2.86,2.86,0,0,1-.9-2.66A23.08,23.08,0,0,1,36.54,307c1.29-3.59,2.89-7.11,3.41-10.89.11-.93.13-1.9.25-2.85s.28-1.9.49-2.83A23.29,23.29,0,0,1,42.51,285a10.69,10.69,0,0,1,1.6-2.4,4.73,4.73,0,0,1,2.49-1.41,3.36,3.36,0,0,1,2.75.71A6.07,6.07,0,0,1,51,284.26a25.41,25.41,0,0,1,1.45,5.54c.17.94.31,1.89.51,2.82A10.87,10.87,0,0,0,53.3,294a7.2,7.2,0,0,0,.64,1.27,32.63,32.63,0,0,1,2.62,5.09,7.27,7.27,0,0,1,.51,2.8A3.23,3.23,0,0,1,55.77,305.63Zm0,0a3.19,3.19,0,0,0,1.28-2.46,7.2,7.2,0,0,0-.52-2.79,31.34,31.34,0,0,0-2.65-5.07,8.09,8.09,0,0,1-.65-1.28,13.51,13.51,0,0,1-.36-1.39c-.2-.94-.35-1.88-.52-2.82a26,26,0,0,0-1.47-5.51,6.17,6.17,0,0,0-1.62-2.3,3.24,3.24,0,0,0-2.63-.67,4.51,4.51,0,0,0-2.39,1.38,10.45,10.45,0,0,0-1.56,2.37,22.63,22.63,0,0,0-1.77,5.4c-.21.93-.35,1.87-.47,2.82s-.13,1.89-.24,2.85c-.55,3.84-2.18,7.35-3.49,10.93a22.9,22.9,0,0,0-1.52,5.48A2.69,2.69,0,0,0,36,315.1a5,5,0,0,0,2.69.69,3.66,3.66,0,0,0,2.45-1.25,9.42,9.42,0,0,0,1.53-2.4c.85-1.7,1.31-3.59,2.33-5.23a3.09,3.09,0,0,1,.48-.54,2.62,2.62,0,0,1,.65-.32,3.67,3.67,0,0,1,1.44,0c.94.17,1.84.51,2.78.7a6.75,6.75,0,0,0,2.83.09A6.83,6.83,0,0,0,55.77,305.63Z" style="fill:#ebebeb"></path></g><g id="freepik--Car--inject-147"><path d="M177.4,396.54s-.89-3.39-1.06-3.55a31.56,31.56,0,0,0-6-.71,4.58,4.58,0,0,0-.86,2.13c0,.37.68,2.13,1,2.19s5.22.15,5.53.12.9,1.88.9,1.88l1.08,0Z" style="fill:#8C52B5"></path><path d="M177.4,396.54s-.89-3.39-1.06-3.55a31.56,31.56,0,0,0-6-.71,4.58,4.58,0,0,0-.86,2.13c0,.37.68,2.13,1,2.19s5.22.15,5.53.12.9,1.88.9,1.88l1.08,0Z" style="fill:#020100;opacity:0.2"></path><path d="M240.35,436.62c5.47-.09,7.07-1.4,7.07-11.67,0-11.53-3.57-11.47-7.17-11.41-5.62.1-7,5.18-7,11.66S233.52,436.74,240.35,436.62Z" style="fill:#263238"></path><path d="M246.65,425c0,4.71-.78,8.54-1.74,8.56s-1.74-3.79-1.74-8.5.78-8.54,1.74-8.56S246.65,420.26,246.65,425Z" style="fill:#dbdbdb"></path><path d="M166.71,437.91c5.46-.1,7.06-1.4,7.06-11.67,0-11.54-3.57-11.48-7.16-11.41-5.63.09-7,5.18-7,11.66S159.88,438,166.71,437.91Z" style="fill:#263238"></path><path d="M173,426.26c0,4.7-.78,8.54-1.74,8.55s-1.74-3.78-1.74-8.49.78-8.54,1.74-8.56S173,421.55,173,426.26Z" style="fill:#dbdbdb"></path><path d="M263.41,430.76c5.17-.09,6.67-1.32,6.67-11,0-10.9-3.37-10.84-6.76-10.78-5.32.09-6.58,4.89-6.58,11S257,430.88,263.41,430.76Z" style="fill:#263238"></path><path d="M269.36,419.76c0,4.45-.74,8.07-1.65,8.08s-1.64-3.58-1.64-8,.74-8.07,1.64-8.08S269.36,415.31,269.36,419.76Z" style="fill:#dbdbdb"></path><path d="M167.22,433.31c-1.25,0-6.73-7.88-7.31-8.92s-1.74-11.22-1.27-12.74a11.46,11.46,0,0,1,1.5-3.5c.47-.48,15.46-10.86,16-11.3s11-19.51,14.09-21.05,15.66-1.84,28.37-2.06,30.63,1.12,33.24,2.47,14.18,23.94,15.22,25.66.35,6.09.35,6.09a11.86,11.86,0,0,1,2.18,4.35,7.83,7.83,0,0,1-.18,3.4s-.82-3.6-2.22-3.57-5,11.88-6.61,14.16a7.94,7.94,0,0,1-4.31,3.43c-1,.28-8.7.93-8.7.93a75,75,0,0,0-.3-9.17c-.48-5.82-2.22-8.62-4-8.59s-4.74,6.05-7.13,11.35-7.05,8.39-9.57,8.44S170.41,433.26,167.22,433.31Z" style="fill:#8C52B5"></path><g style="opacity:0.30000000000000004"><path d="M227.94,409.23l.55-2.28a18.67,18.67,0,0,1,1.68-1.65c1.15-1.06,2.32-2.1,3.49-3.14,2.36-2.05,4.71-4.12,7.11-6.12l-7,6.21c-1.18,1-2.35,2.06-3.52,3.11a23.19,23.19,0,0,0-1.67,1.61Z" style="fill:#020100"></path><path d="M226.51,432.69c.57-1.81,1.17-3.61,1.78-5.4s1.19-3.6,1.82-5.39v0c-.08-2.18-.16-4.37-.2-6.55.12,2.18.21,4.36.3,6.55h0c-.59,1.8-1.21,3.59-1.83,5.38S227.15,430.9,226.51,432.69Z" style="fill:#020100"></path><path d="M161.59,410.38l.55-2h0l8.43-6.32c2.83-2.08,5.65-4.18,8.5-6.24-2.79,2.14-5.62,4.23-8.42,6.34l-8.49,6.26v0Z" style="fill:#020100"></path><path d="M244.78,395.68c.68,3.77,1.29,7.57,1.93,11.35h0l.21,6.45q.11,3.22.17,6.45-.15-3.22-.26-6.45l-.24-6.44h0C246,403.26,245.35,399.47,244.78,395.68Z" style="fill:#020100"></path><path d="M256.74,396c1.17,3,2.29,6,3.44,9h0c.08,2.11.12,4.23.19,6.35s.11,4.23.15,6.35c-.1-2.12-.18-4.23-.25-6.35s-.16-4.23-.21-6.35v0C259,402,257.82,399,256.74,396Z" style="fill:#020100"></path><path d="M234.08,423.63q.81-2.85,1.66-5.7a40.64,40.64,0,0,1,1.9-5.64,5.76,5.76,0,0,1,1.84-2.34,3.2,3.2,0,0,1,2.88-.28,4.43,4.43,0,0,1,2,2.13,11.71,11.71,0,0,1,1,2.76,12.07,12.07,0,0,0-1.06-2.73,4.35,4.35,0,0,0-2-2.08,3.14,3.14,0,0,0-2.79.29,5.71,5.71,0,0,0-1.77,2.31,39.44,39.44,0,0,0-1.94,5.6Q235,420.8,234.08,423.63Z" style="fill:#020100"></path><path d="M248.65,428.64c1.36-.19,2.71-.41,4.06-.64s2.7-.48,4-.86a3.94,3.94,0,0,0,.48-.18.76.76,0,0,0,.39-.29,5.48,5.48,0,0,0,.47-.9c.27-.63.49-1.28.7-1.94.42-1.3.78-2.63,1.13-3.95q1-4,1.91-8a10.8,10.8,0,0,1,.52-2,4,4,0,0,1,1.22-1.66,3.35,3.35,0,0,1,1.9-.74,3.51,3.51,0,0,1,2,.48,3.44,3.44,0,0,0-2-.45,3.36,3.36,0,0,0-1.86.75,4.07,4.07,0,0,0-1.19,1.65,10.28,10.28,0,0,0-.51,2q-.84,4-1.86,8c-.36,1.33-.73,2.65-1.16,4-.21.65-.44,1.3-.71,1.94a4.71,4.71,0,0,1-.49.91.9.9,0,0,1-.42.33c-.16.07-.33.11-.49.17A65.68,65.68,0,0,1,248.65,428.64Z" style="fill:#020100"></path></g><path d="M179.08,395.78l-12.15,9s15.49-.85,17.46-.93,11.6-3.55,11.6-3.55l25.3-3.05Z" style="fill:#fff;opacity:0.2"></path><path d="M243.25,389.59s-1.6-8.73-1.84-10.51.85-1.86,5.43-1.94c5.23-.1,5.62-.05,7,2.43s5.14,9.74,5.14,9.74Z" style="fill:#263238"></path><path d="M244.91,395.94c.19.35.79.71,2.51.55s12.15-.59,12.89-.73,1.26-.83.91-2-6.78-12.53-7.28-13.49-.72-1.1-2.35-1.07l-8,.14c-1.91,0-1.8,1.4-1.57,3S243.79,393.92,244.91,395.94Z" style="fill:#455a64"></path><g style="opacity:0.1"><path d="M255.23,382.56l-11.06,11.25c-.41-1.57-.83-3.69-1.19-5.69l8.78-8.93c1.47,0,1.71.13,2.18,1.06C254.06,380.49,254.56,381.36,255.23,382.56Z" style="fill:#fff"></path><path d="M260.15,391.53,255.72,396l-3.32.16,6.64-6.75Z" style="fill:#fff"></path><path d="M258.42,388.33l-7.84,8-.67,0,8.28-8.43C258.27,388.05,258.35,388.19,258.42,388.33Z" style="fill:#fff"></path><path d="M246.92,379.27,242.27,384c0-.2-.06-.4-.08-.57l4.07-4.14Z" style="fill:#fff"></path></g><polygon points="253.13 396.17 246.84 377.14 248.09 377.12 254.48 396.1 253.13 396.17" style="fill:#8C52B5"></polygon><path d="M237.35,397c4.82-.09,4.41-1.82,4-4.37s-1.42-10.12-2.29-12.72-1.21-3.17-9.39-3l-37.16.65c-2.64.05-2.81.69-5.07,3.75s-6.8,11.19-7.57,12.62c-1.19,2.2-2.06,4.13,3.56,4Z" style="fill:#455a64"></path><path d="M239.25,380.43l-51.82.91a.09.09,0,0,1,0-.06c2.26-3.06,2.43-3.7,5.07-3.75l37.15-.65c8.18-.14,8.53.43,9.4,3C239.14,380.07,239.2,380.24,239.25,380.43Z" style="fill:#263238"></path><path d="M239,396.88q-.69.09-1.62.12l-37.31.65s4.44-2.47,5-2.7,29.36-.51,30-.53S238.54,396.39,239,396.88Z" style="fill:#263238"></path><g style="opacity:0.1"><path d="M202.64,377.35l-20.22,20.58c-4.46-.15-3.63-2-2.52-4l.4-.73,15.43-15.69Z" style="fill:#fff"></path><path d="M239.22,380.3l-16.66,16.95-6.91.12,20-20.33c2.53.32,2.88,1.15,3.45,2.87C239.13,380,239.17,380.16,239.22,380.3Z" style="fill:#fff"></path><polygon points="215.34 377.13 195.09 397.73 191.88 397.79 212.13 377.19 215.34 377.13" style="fill:#fff"></polygon><polygon points="218.24 377.08 198 397.68 197.35 397.69 217.59 377.09 218.24 377.08" style="fill:#fff"></polygon><path d="M240.49,386.72l-10.23,10.4h-.65l10.79-11Z" style="fill:#fff"></path></g><path d="M244.43,395.37a35.71,35.71,0,0,1,1.06-3.58c.17-.16,5.66-1.14,6-.92a4.5,4.5,0,0,1,.86,2.09c0,.38-.69,2.16-1,2.23s-5.22.33-5.53.31-.91,1.91-.91,1.91l-1.07,0Z" style="fill:#8C52B5"></path><path d="M244.43,395.37a35.71,35.71,0,0,1,1.06-3.58c.17-.16,5.66-1.14,6-.92a4.5,4.5,0,0,1,.86,2.09c0,.38-.69,2.16-1,2.23s-5.22.33-5.53.31-.91,1.91-.91,1.91l-1.07,0Z" style="fill:#020100;opacity:0.1"></path><path d="M224.1,432.71c-10.91.13-54,.55-56.88.6-1.25,0-6.73-7.89-7.31-8.92-.39-.71-1.07-5.71-1.3-9.28.64,1.06,4.84,7.95,8.32,9.39,3.77,1.56,14.22,4.28,24.95,5.13C202.1,430.45,222.24,432.52,224.1,432.71Z" style="fill:#020100;opacity:0.1"></path><polygon points="232.51 423.36 158.53 424.65 158.53 421.69 232.51 420.4 232.51 423.36" style="fill:#263238"></polygon><polygon points="206.23 430.43 182.56 430.84 182.56 425.62 206.23 425.21 206.23 430.43" style="fill:#fff"></polygon><path d="M161.59,410.38a27.23,27.23,0,0,0-1,4.2,24.65,24.65,0,0,0,.52,4l68.57-1.2s.52-3.66.52-4.47a22.85,22.85,0,0,0-1-3.7Z" style="fill:#455a64"></path><polygon points="162.49 410.98 195.37 410.34 228.25 409.83 195.37 410.47 162.49 410.98" style="fill:#263238"></polygon><polygon points="162.49 411.67 195.37 411.03 228.25 410.52 195.37 411.16 162.49 411.67" style="fill:#263238"></polygon><polygon points="162.49 412.37 195.37 411.73 228.25 411.22 195.37 411.86 162.49 412.37" style="fill:#263238"></polygon><polygon points="161.97 413.07 195.37 412.43 228.77 411.91 195.37 412.56 161.97 413.07" style="fill:#263238"></polygon><polygon points="161.45 413.78 195.37 413.12 229.29 412.6 195.37 413.25 161.45 413.78" style="fill:#263238"></polygon><polygon points="161.45 414.48 195.37 413.82 229.29 413.29 195.37 413.95 161.45 414.48" style="fill:#263238"></polygon><polygon points="161.45 415.17 195.37 414.51 229.29 413.99 195.37 414.64 161.45 415.17" style="fill:#263238"></polygon><polygon points="161.97 415.86 195.37 415.21 228.77 414.69 195.37 415.34 161.97 415.86" style="fill:#263238"></polygon><polygon points="162.49 416.55 195.37 415.91 228.25 415.4 195.37 416.04 162.49 416.55" style="fill:#263238"></polygon><polygon points="162.49 417.24 195.37 416.6 228.25 416.09 195.37 416.73 162.49 417.24" style="fill:#263238"></polygon><polygon points="162.49 417.94 195.37 417.3 228.25 416.79 195.37 417.43 162.49 417.94" style="fill:#263238"></polygon><path d="M171.37,414.3a4.54,4.54,0,0,1-4.44,4.52,4.35,4.35,0,0,1-4.44-4.36,4.54,4.54,0,0,1,4.44-4.52A4.35,4.35,0,0,1,171.37,414.3Z" style="fill:#fff"></path><path d="M228.68,413.3a4.54,4.54,0,0,1-4.44,4.52,4.34,4.34,0,0,1-4.43-4.36,4.53,4.53,0,0,1,4.43-4.52A4.35,4.35,0,0,1,228.68,413.3Z" style="fill:#fff"></path><path d="M196.89,413.86a2.22,2.22,0,0,1-2.17,2.21,2.14,2.14,0,0,1-2.18-2.14,2.22,2.22,0,0,1,2.18-2.21A2.13,2.13,0,0,1,196.89,413.86Z" style="fill:#8C52B5"></path><polygon points="232.51 409.15 267.98 404.76 267.98 404.05 232.51 408.25 232.51 409.15" style="fill:#263238"></polygon><polygon points="247.39 423.3 247.35 422.65 259.55 420.8 259.31 421.58 247.39 423.3" style="fill:#263238"></polygon></g></svg>