<svg xmlns="http://www.w3.org/2000/svg" viewBox="0 0 500 500"><g id="freepik--Leaves--inject-2"><path d="M177.41,320.57c-39.69-22.1-73.86-14.22-73.86-14.22s52.13,52,93,54.89C197.27,346.14,190.56,327.89,177.41,320.57Z" style="fill:#D7B922"></path><path d="M177.41,320.57c-39.69-22.1-73.86-14.22-73.86-14.22s52.13,52,93,54.89C197.27,346.14,190.56,327.89,177.41,320.57Z" style="fill:#fff;opacity:0.5"></path><path d="M103.55,306.35s52.13,52,93,54.89C187.68,337.3,150.32,315.72,103.55,306.35Z" style="fill:#fff;opacity:0.5"></path><path d="M267.36,137c-9.41-21.74-26.05-29.32-26.05-29.32s5.07,38.06,21.07,52.23C267.47,153.88,270.48,144.21,267.36,137Z" style="fill:#D7B922"></path><path d="M267.36,137c-9.41-21.74-26.05-29.32-26.05-29.32s5.07,38.06,21.07,52.23C267.47,153.88,270.48,144.21,267.36,137Z" style="fill:#fff;opacity:0.5"></path><path d="M241.31,107.68s5.07,38.06,21.07,52.23C266.3,147.18,257.69,126.4,241.31,107.68Z" style="fill:#fff;opacity:0.5"></path><path d="M323.22,291.88c29.68-17.88,55.94-12.77,55.94-12.77s-38.39,41-69.49,44.28C308.74,311.89,313.38,297.81,323.22,291.88Z" style="fill:#D7B922"></path><path d="M323.22,291.88c29.68-17.88,55.94-12.77,55.94-12.77s-38.39,41-69.49,44.28C308.74,311.89,313.38,297.81,323.22,291.88Z" style="fill:#fff;opacity:0.5"></path><path d="M379.16,279.11s-38.39,41-69.49,44.28C315.82,304.91,343.74,287.48,379.16,279.11Z" style="fill:#fff;opacity:0.5"></path><path d="M334.05,309c21.39-2.25,34.81,7.53,34.81,7.53s-32.37,13-50.72,6.63C320.65,316.47,327,309.77,334.05,309Z" style="fill:#D7B922"></path><path d="M334.05,309c21.39-2.25,34.81,7.53,34.81,7.53s-32.37,13-50.72,6.63C320.65,316.47,327,309.77,334.05,309Z" style="fill:#fff;opacity:0.5"></path><path d="M368.86,316.55s-32.37,13-50.72,6.63C326.46,314.41,346.74,312,368.86,316.55Z" style="fill:#fff;opacity:0.5"></path><path d="M229,385.19A66.41,66.41,0,0,1,203.09,380c-23.8-10-38.79-31.74-44.89-48.78-7-19.58-9.64-42.79-7-62.07,3.52-26.11,16.34-45.21,37.09-55.22,11.34-5.47,23.91-13.28,37.21-21.55,41.11-25.56,87.7-54.53,111.67-20.11,21.59,31,25.59,87.15,9.1,127.82C338.79,318.37,324,341.36,296,346.82c-17.11,3.34-18.35,8.65-19.79,14.81-1.16,5-2.47,10.58-12.84,15.38l-.21-.45.21.45C251.56,382.46,240.06,385.19,229,385.19Zm78.2-227.7c-23.77,0-53.7,18.61-81.17,35.69-13.33,8.28-25.92,16.11-37.31,21.6-20.43,9.86-33.06,28.69-36.53,54.45-2.57,19.14.05,42.16,7,61.6,6,16.84,20.83,38.34,44.33,48.19,18.5,7.76,38.5,6.77,59.46-2.92h0c9.93-4.59,11.13-9.73,12.29-14.7,1.45-6.22,2.82-12.1,20.57-15.56,27.62-5.37,42.17-28.08,49.5-46.17,16.38-40.39,12.42-96.12-9-126.88C328.67,161.84,318.63,157.49,307.15,157.49Z" style="fill:#D7B922"></path><path d="M150.66,289.83c-8.33-15.5-11.16-6.66-9-3.16S150.66,289.83,150.66,289.83Z" style="fill:#D7B922"></path><path d="M161.09,336.93c-11-13.72-12.2-4.52-9.43-1.48S161.09,336.93,161.09,336.93Z" style="fill:#D7B922"></path><path d="M152.94,308.67c8.65-15.33,11.3-6.44,9.06-3S152.94,308.67,152.94,308.67Z" style="fill:#D7B922"></path><path d="M183,366.89c-8-15.67.86-13,2.51-9.21S183,366.89,183,366.89Z" style="fill:#D7B922"></path><path d="M331.44,324.6c15.45-8.42,13,.53,9.26,2.27S331.44,324.6,331.44,324.6Z" style="fill:#D7B922"></path><path d="M323.55,160.66c-15-9.17-6-11.51-2.66-9.16S323.55,160.66,323.55,160.66Z" style="fill:#D7B922"></path><path d="M350.91,285.23c-.54-17.59-7-11-6.64-6.85S350.91,285.23,350.91,285.23Z" style="fill:#D7B922"></path><path d="M151.61,268.76c8.65-15.33,11.3-6.44,9.06-3S151.61,268.76,151.61,268.76Z" style="fill:#D7B922"></path></g><g id="freepik--Mask--inject-2"><path d="M272.25,396.47l-.3-1a63.86,63.86,0,0,0,20.11-10.59l.62.79A65.16,65.16,0,0,1,272.25,396.47Z" style="fill:#D7B922"></path><path d="M260.3,399l-.12-1a65.56,65.56,0,0,0,7.09-1.22l.22,1A67.85,67.85,0,0,1,260.3,399Z" style="fill:#D7B922"></path><path d="M250,147.05c-59.37,0-100.47,51.78-82.42,149.53S233.76,396,250,396s64.38-1.65,82.42-99.41S309.37,147.05,250,147.05Z" style="fill:#D7B922"></path><path d="M184.87,259.67c15.09-5.55,34.66-7.3,43.89,3.3S206.11,281.63,184.87,259.67Z" style="fill:#263238"></path><path d="M315.13,259.67c-15.09-5.55-34.66-7.3-43.89,3.3S293.89,281.63,315.13,259.67Z" style="fill:#263238"></path><path d="M263.09,300.59c-.68-3-8.33,1-13.09,1s-12.41-4.07-13.09-1,5.61,6.23,13.09,6.23S263.77,303.64,263.09,300.59Z" style="opacity:0.2"></path><path d="M261.05,353.42c-.57-1.27-7,.43-11.05.43s-10.48-1.7-11.05-.43S243.68,356,250,356,261.63,354.69,261.05,353.42Z" style="opacity:0.2"></path><path d="M257.67,333.46c-4.47,0-6.4.8-7.18,1.32a.88.88,0,0,1-1,0c-.78-.52-2.71-1.32-7.18-1.32-5,0-21,4.92-28.64,7.35a.85.85,0,0,0,.2,1.65c8.08.61,25.68,1.84,36.11,1.84s28-1.23,36.11-1.84a.85.85,0,0,0,.2-1.65C278.69,338.38,262.66,333.46,257.67,333.46Z" style="opacity:0.2"></path><path d="M193.51,349.05c-9.29-23.71-6.63-47-13.65-81-7.61-36.79,3.08-74.75,18.68-104.23-28.63,22.5-43,67.33-31,132.72,10.06,54.53,29.49,79.15,47.53,90.26C212,376.43,198.6,362,193.51,349.05Z" style="opacity:0.1"></path><path d="M306.49,349.05c9.29-23.71,6.63-47,13.65-81,7.61-36.79-3.08-74.75-18.68-104.23,28.63,22.5,43,67.33,31,132.72-10.06,54.53-29.49,79.15-47.53,90.26C288,376.43,301.4,362,306.49,349.05Z" style="opacity:0.1"></path></g></svg>