<svg xmlns="http://www.w3.org/2000/svg" xmlns:xlink="http://www.w3.org/1999/xlink" viewBox="0 0 500 500"><defs><clipPath id="freepik--clip-path--inject-19"><path d="M300.74,390.45c2.11-3.69,3.29-9.22,2.24-12s-3.43-6.06-5.41-6.33-4.87.27-5.66-.26-9-4.61-12.92-7.78S266.73,359,259.88,359s-13.18.4-16.74,0-5.53-1.45-9.09-.79-7,3.3-9.23,3.69a24.94,24.94,0,0,1-3.95.4s-5.8-2.37-6.19-2.9c0,0-.66.4-1.32-.66s-.13-2-2.64-1.58a2.66,2.66,0,0,0-2.5,2.5s-3.3,2-4,2.51-5.27,4.74-6.72,6.19-1.58,1.71-4.08,4.22-3.82,2.63-4.35,4.08c-.43,1.17.78,2.52,1.95,3.75a2.65,2.65,0,0,0,1.93.82h0a20.22,20.22,0,0,0,3-.75l.84-.26a2.52,2.52,0,0,1-1.28,1.27c-.49.24-1,.52-1,1a7.2,7.2,0,0,0,2.65-.18,31.34,31.34,0,0,0,5.53-2.63,55.07,55.07,0,0,0,8.7.52c2.77-.26,6.59-2.11,7.51-2.5s5.93,1.05,7,2a16.49,16.49,0,0,1,3.56,7c.52,2.64,2.24,7.51,3.82,8.57s15.55,10.94,22.4,13.18,19.25,1.31,21.49.66,4-1.32,4-1.32,4.61,4.74,7.51,5.4a35.62,35.62,0,0,1,4.29,1.19,24.79,24.79,0,0,0-1,4.87c0,1.59-1.06,3.69-1.72,5.8s-1.18,4.88-2.37,6.46-3,4.22-3.29,5.67,1.71,1.45,2.24,1.18,2.63-1.05,2.76-2.37a23.2,23.2,0,0,1,1.19-4.35c.26-.66,2.37-2.77,2.77-5a21.81,21.81,0,0,1,1.45-5.27c.52-1.05,3-4.61,3.42-6.59a11.06,11.06,0,0,0-.92-6.59c-1.05-2.63-2.11-6.45-2-7.11A108.5,108.5,0,0,1,300.74,390.45Z" style="fill:#fff;stroke:#263238;stroke-linecap:round;stroke-linejoin:round;stroke-width:1.241913891592246px"></path></clipPath><clipPath id="freepik--clip-path-2--inject-19"><path d="M240.13,388.66s-3.4,5.26-3.4,9-4,8.65-6.49,11.74-3.09,6.8-1.85,8,4.33,9,5.87,12.06,1.86,5.25,3.09,5.56,3.71,3.71,5.56,3.4,2.48-2.48.62-5.26-2.16.93-4.63-3.09-2.17-8.65-3.71-10.5-2.78-2.78-2.16-4.33,6.48-8,8.65-9.89,8.34-3.71,12-6.49" style="fill:#fff;stroke:#263238;stroke-linecap:round;stroke-linejoin:round;stroke-width:1.241913891592246px"></path></clipPath></defs><g id="freepik--background-simple--inject-19"><path d="M454.91,233.54s13.66-32.29,1.24-83.21-69.54-53.41-118-59.61S286,53.46,233.85,49.73,137,78.3,128.29,111.83s1.24,50.92-36,77S19,237.26,33.9,285.7s52.16,48.43,58.37,80.72,49.68,72,100.6,88.18S278.56,426,325.75,428.52s91.91-1.25,114.26-37.26-9.94-70.79-3.73-95.63S450,257.13,454.91,233.54Z" style="fill:#8C52B5"></path><path d="M454.91,233.54s13.66-32.29,1.24-83.21-69.54-53.41-118-59.61S286,53.46,233.85,49.73,137,78.3,128.29,111.83s1.24,50.92-36,77S19,237.26,33.9,285.7s52.16,48.43,58.37,80.72,49.68,72,100.6,88.18S278.56,426,325.75,428.52s91.91-1.25,114.26-37.26-9.94-70.79-3.73-95.63S450,257.13,454.91,233.54Z" style="fill:#fff;opacity:0.7000000000000001"></path></g><g id="freepik--Mountains--inject-19"><path d="M440,391.26c10-16.15,9.06-32,5.51-46.9-1.83-.14-3.86-.24-6.18-.24-14.83,0-18.32,25.31-27,26.18s-21.81-13.09-36.64-13.09-34,60.2-41,64.57-12.22-3.49-27.05-9.6-34,13.09-51.48,19.19-36.64-4.36-42.75-15.7-20.07-44.5-32.28-43.63-24.43,9.6-31.41,1.75-30.54-71.55-39.26-72.42c-5.69-.57-31.8,15.2-49.27,26.23C75,340,88.72,348,92.27,366.42c6.21,32.29,49.68,72,100.6,88.18S278.56,426,325.75,428.52,417.66,427.27,440,391.26Z" style="fill:#8C52B5"></path><path d="M440,391.26c10-16.15,9.06-32,5.51-46.9-1.83-.14-3.86-.24-6.18-.24-14.83,0-18.32,25.31-27,26.18s-21.81-13.09-36.64-13.09-34,60.2-41,64.57-12.22-3.49-27.05-9.6-34,13.09-51.48,19.19-36.64-4.36-42.75-15.7-20.07-44.5-32.28-43.63-24.43,9.6-31.41,1.75-30.54-71.55-39.26-72.42c-5.69-.57-31.8,15.2-49.27,26.23C75,340,88.72,348,92.27,366.42c6.21,32.29,49.68,72,100.6,88.18S278.56,426,325.75,428.52,417.66,427.27,440,391.26Z" style="fill:#fff;opacity:0.5"></path></g><g id="freepik--Stars--inject-19"><path d="M405.65,217.8a4.56,4.56,0,1,0,4.55,4.56A4.56,4.56,0,0,0,405.65,217.8Z" style="fill:#8C52B5"></path><path d="M367.36,222.77a2.28,2.28,0,1,0,2.27,2.28A2.28,2.28,0,0,0,367.36,222.77Z" style="fill:#8C52B5"></path><path d="M414.14,180.75a2.28,2.28,0,1,0,2.27,2.28A2.28,2.28,0,0,0,414.14,180.75Z" style="fill:#8C52B5"></path><path d="M441.67,219.05a2.28,2.28,0,1,0,2.27,2.27A2.28,2.28,0,0,0,441.67,219.05Z" style="fill:#8C52B5"></path><path d="M372.55,273.86a4.55,4.55,0,1,0,6.25,1.57A4.55,4.55,0,0,0,372.55,273.86Z" style="fill:#8C52B5"></path><path d="M351.74,244.35a2.27,2.27,0,1,0,3.12.78A2.28,2.28,0,0,0,351.74,244.35Z" style="fill:#8C52B5"></path><path d="M411.82,262.89a2.27,2.27,0,1,0,3.12.78A2.27,2.27,0,0,0,411.82,262.89Z" style="fill:#8C52B5"></path><path d="M393.12,306.18a2.28,2.28,0,1,0,3.12.78A2.28,2.28,0,0,0,393.12,306.18Z" style="fill:#8C52B5"></path><path d="M113.8,231.88a4.55,4.55,0,1,0,6.25,1.57A4.56,4.56,0,0,0,113.8,231.88Z" style="fill:#8C52B5"></path><path d="M93,202.36a2.28,2.28,0,1,0,3.12.79A2.29,2.29,0,0,0,93,202.36Z" style="fill:#8C52B5"></path><path d="M153.07,220.9a2.28,2.28,0,1,0,3.12.79A2.28,2.28,0,0,0,153.07,220.9Z" style="fill:#8C52B5"></path><path d="M134.36,264.2a2.27,2.27,0,1,0,3.13.78A2.28,2.28,0,0,0,134.36,264.2Z" style="fill:#8C52B5"></path><path d="M71.36,273.72a4.55,4.55,0,1,0,6.25,1.57A4.55,4.55,0,0,0,71.36,273.72Z" style="fill:#8C52B5"></path><path d="M50.55,244.21a2.27,2.27,0,1,0,3.12.78A2.27,2.27,0,0,0,50.55,244.21Z" style="fill:#8C52B5"></path><path d="M110.63,262.75a2.27,2.27,0,1,0,3.13.78A2.27,2.27,0,0,0,110.63,262.75Z" style="fill:#8C52B5"></path><path d="M91.93,306a2.28,2.28,0,1,0,3.12.78A2.28,2.28,0,0,0,91.93,306Z" style="fill:#8C52B5"></path><path d="M174.39,69.7a4.55,4.55,0,1,0,6.08,2.09A4.56,4.56,0,0,0,174.39,69.7Z" style="fill:#8C52B5"></path><path d="M208.62,52.53a2.27,2.27,0,1,0,3,1A2.27,2.27,0,0,0,208.62,52.53Z" style="fill:#8C52B5"></path><path d="M185,100.87a2.28,2.28,0,0,0-1,3,2.28,2.28,0,1,0,1-3Z" style="fill:#8C52B5"></path><path d="M143.47,88.47a2.28,2.28,0,1,0,3.05,1A2.28,2.28,0,0,0,143.47,88.47Z" style="fill:#8C52B5"></path><path d="M380.07,127.81A4.55,4.55,0,1,0,381.8,134,4.56,4.56,0,0,0,380.07,127.81Z" style="fill:#8C52B5"></path><path d="M344.29,113.31a2.27,2.27,0,1,0,.86,3.1A2.26,2.26,0,0,0,344.29,113.31Z" style="fill:#8C52B5"></path><path d="M397.5,105.36a2.27,2.27,0,1,0,.86,3.1A2.26,2.26,0,0,0,397.5,105.36Z" style="fill:#8C52B5"></path><path d="M408.58,150.57a2.28,2.28,0,1,0-.86-3.1A2.29,2.29,0,0,0,408.58,150.57Z" style="fill:#8C52B5"></path><g style="opacity:0.3"><path d="M405.65,217.8a4.56,4.56,0,1,0,4.55,4.56A4.56,4.56,0,0,0,405.65,217.8Z" style="fill:#fff"></path><path d="M367.36,222.77a2.28,2.28,0,1,0,2.27,2.28A2.28,2.28,0,0,0,367.36,222.77Z" style="fill:#fff"></path><path d="M414.14,180.75a2.28,2.28,0,1,0,2.27,2.28A2.28,2.28,0,0,0,414.14,180.75Z" style="fill:#fff"></path><path d="M441.67,219.05a2.28,2.28,0,1,0,2.27,2.27A2.28,2.28,0,0,0,441.67,219.05Z" style="fill:#fff"></path><path d="M372.55,273.86a4.55,4.55,0,1,0,6.25,1.57A4.55,4.55,0,0,0,372.55,273.86Z" style="fill:#fff"></path><path d="M351.74,244.35a2.27,2.27,0,1,0,3.12.78A2.28,2.28,0,0,0,351.74,244.35Z" style="fill:#fff"></path><path d="M411.82,262.89a2.27,2.27,0,1,0,3.12.78A2.27,2.27,0,0,0,411.82,262.89Z" style="fill:#fff"></path><path d="M393.12,306.18a2.28,2.28,0,1,0,3.12.78A2.28,2.28,0,0,0,393.12,306.18Z" style="fill:#fff"></path><path d="M113.8,231.88a4.55,4.55,0,1,0,6.25,1.57A4.56,4.56,0,0,0,113.8,231.88Z" style="fill:#fff"></path><path d="M93,202.36a2.28,2.28,0,1,0,3.12.79A2.29,2.29,0,0,0,93,202.36Z" style="fill:#fff"></path><path d="M153.07,220.9a2.28,2.28,0,1,0,3.12.79A2.28,2.28,0,0,0,153.07,220.9Z" style="fill:#fff"></path><path d="M134.36,264.2a2.27,2.27,0,1,0,3.13.78A2.28,2.28,0,0,0,134.36,264.2Z" style="fill:#fff"></path><path d="M71.36,273.72a4.55,4.55,0,1,0,6.25,1.57A4.55,4.55,0,0,0,71.36,273.72Z" style="fill:#fff"></path><path d="M50.55,244.21a2.27,2.27,0,1,0,3.12.78A2.27,2.27,0,0,0,50.55,244.21Z" style="fill:#fff"></path><path d="M110.63,262.75a2.27,2.27,0,1,0,3.13.78A2.27,2.27,0,0,0,110.63,262.75Z" style="fill:#fff"></path><path d="M91.93,306a2.28,2.28,0,1,0,3.12.78A2.28,2.28,0,0,0,91.93,306Z" style="fill:#fff"></path><path d="M174.39,69.7a4.55,4.55,0,1,0,6.08,2.09A4.56,4.56,0,0,0,174.39,69.7Z" style="fill:#fff"></path><path d="M208.62,52.53a2.27,2.27,0,1,0,3,1A2.27,2.27,0,0,0,208.62,52.53Z" style="fill:#fff"></path><path d="M185,100.87a2.28,2.28,0,0,0-1,3,2.28,2.28,0,1,0,1-3Z" style="fill:#fff"></path><path d="M143.47,88.47a2.28,2.28,0,1,0,3.05,1A2.28,2.28,0,0,0,143.47,88.47Z" style="fill:#fff"></path><path d="M380.07,127.81A4.55,4.55,0,1,0,381.8,134,4.56,4.56,0,0,0,380.07,127.81Z" style="fill:#fff"></path><path d="M344.29,113.31a2.27,2.27,0,1,0,.86,3.1A2.26,2.26,0,0,0,344.29,113.31Z" style="fill:#fff"></path><path d="M397.5,105.36a2.27,2.27,0,1,0,.86,3.1A2.26,2.26,0,0,0,397.5,105.36Z" style="fill:#fff"></path><path d="M408.58,150.57a2.28,2.28,0,1,0-.86-3.1A2.29,2.29,0,0,0,408.58,150.57Z" style="fill:#fff"></path></g></g><g id="freepik--space-ship--inject-19"><ellipse cx="252.22" cy="132.09" rx="57.8" ry="45.12" style="fill:#263238;stroke:#263238;stroke-linecap:round;stroke-linejoin:round;stroke-width:1.241913891592246px"></ellipse><path d="M293,103.75c8.6,7.53,13.83,17.46,13.83,28.34,0,23.54-24.44,42.62-54.59,42.62s-54.59-19.08-54.59-42.62c0-14.71,9.55-27.67,24.07-35.33" style="fill:#263238;stroke:#fff;stroke-linecap:round;stroke-linejoin:round;stroke-width:1.241913891592246px"></path><path d="M228.55,93.68a65.74,65.74,0,0,1,13.61-3.48" style="fill:#263238;stroke:#fff;stroke-linecap:round;stroke-linejoin:round;stroke-width:1.241913891592246px"></path><ellipse cx="252.22" cy="142.74" rx="93.48" ry="31.02" style="fill:#8C52B5;stroke:#263238;stroke-linecap:round;stroke-linejoin:round;stroke-width:1.241913891592246px"></ellipse><ellipse cx="252.22" cy="153.92" rx="133.19" ry="31.02" style="fill:#8C52B5;stroke:#263238;stroke-linecap:round;stroke-linejoin:round;stroke-width:1.241913891592246px"></ellipse><ellipse cx="252.22" cy="162.19" rx="153.87" ry="31.02" style="fill:#263238;stroke:#263238;stroke-linecap:round;stroke-linejoin:round;stroke-width:1.241913891592246px"></ellipse><ellipse cx="252.3" cy="162.18" rx="115.24" ry="21.68" style="fill:#8C52B5;stroke:#263238;stroke-linecap:round;stroke-linejoin:round;stroke-width:1.241913891592246px"></ellipse><path d="M303.51,162.19H200.93L125.69,416.46a189.58,189.58,0,0,0,67.18,38.14c50.92,16.14,85.69-28.57,132.88-26.08,23,1.21,45.46.93,65-3.85Z" style="fill:#fff;opacity:0.6"></path><ellipse cx="252.22" cy="162.19" rx="51.29" ry="10.34" style="fill:#263238;stroke:#263238;stroke-linecap:round;stroke-linejoin:round;stroke-width:1.241913891592246px"></ellipse><ellipse cx="252.3" cy="138.77" rx="12.22" ry="2.68" style="fill:#fff;stroke:#263238;stroke-linecap:round;stroke-linejoin:round;stroke-width:1.241913891592246px"></ellipse><path d="M139.07,162c0,1-3.74,1.84-8.36,1.84s-8.37-.83-8.37-1.84,3.75-1.84,8.37-1.84S139.07,161,139.07,162Z" style="fill:#fff;stroke:#263238;stroke-linecap:round;stroke-linejoin:round;stroke-width:1.241913891592246px"></path><path d="M384.7,162c0,1-3.75,1.84-8.37,1.84S368,163,368,162s3.74-1.84,8.36-1.84S384.7,161,384.7,162Z" style="fill:#fff;stroke:#263238;stroke-linecap:round;stroke-linejoin:round;stroke-width:1.241913891592246px"></path><ellipse cx="327.76" cy="147.34" rx="11.42" ry="2.51" style="fill:#fff;stroke:#263238;stroke-linecap:round;stroke-linejoin:round;stroke-width:1.241913891592246px"></ellipse><ellipse cx="185.77" cy="147.34" rx="11.42" ry="2.51" style="fill:#fff;stroke:#263238;stroke-linecap:round;stroke-linejoin:round;stroke-width:1.241913891592246px"></ellipse><ellipse cx="327.76" cy="176.72" rx="8.36" ry="1.84" style="fill:#fff;stroke:#263238;stroke-linecap:round;stroke-linejoin:round;stroke-width:1.241913891592246px"></ellipse><ellipse cx="185.77" cy="176.72" rx="8.36" ry="1.84" style="fill:#fff;stroke:#263238;stroke-linecap:round;stroke-linejoin:round;stroke-width:1.241913891592246px"></ellipse><line x1="159.66" y1="300.8" x2="156.83" y2="310.54" style="fill:none;stroke:#263238;stroke-linecap:round;stroke-linejoin:round;stroke-width:1.241913891592246px"></line><line x1="184.9" y1="213.93" x2="162.59" y2="290.74" style="fill:none;stroke:#263238;stroke-linecap:round;stroke-linejoin:round;stroke-width:1.241913891592246px"></line><line x1="198.59" y1="166.79" x2="187.33" y2="205.57" style="fill:none;stroke:#263238;stroke-linecap:round;stroke-linejoin:round;stroke-width:1.241913891592246px"></line><line x1="303.51" y1="162.19" x2="351.83" y2="305.57" style="fill:none;stroke:#263238;stroke-linecap:round;stroke-linejoin:round;stroke-width:1.241913891592246px"></line><line x1="221.88" y1="174.82" x2="210.64" y2="237.46" style="fill:#fff;stroke:#263238;stroke-linecap:round;stroke-linejoin:round;stroke-width:1.241913891592246px"></line><line x1="289.34" y1="174.82" x2="309.42" y2="286.45" style="fill:#fff;stroke:#263238;stroke-linecap:round;stroke-linejoin:round;stroke-width:1.241913891592246px"></line><line x1="252.22" y1="306.53" x2="252.22" y2="319.38" style="fill:#fff;stroke:#263238;stroke-linecap:round;stroke-linejoin:round;stroke-width:1.241913891592246px"></line><line x1="252.22" y1="193.22" x2="252.22" y2="294.48" style="fill:#fff;stroke:#263238;stroke-linecap:round;stroke-linejoin:round;stroke-width:1.241913891592246px"></line><path d="M252.22,151.85a215.78,215.78,0,0,0-29.35,1.86c2.83,5.86,15.2,10.28,30,10.28s26.94-4.33,29.93-10.1A212.22,212.22,0,0,0,252.22,151.85Z" style="fill:#fff;stroke:#263238;stroke-miterlimit:10;stroke-width:1.241913891592246px"></path></g></svg>